<svg width="953" height="92" viewBox="0 0 953 92" fill="none" xmlns="http://www.w3.org/2000/svg">
<path d="M782 40.5H725.5C720.806 40.5 717 36.6944 717 32C717 27.3055 720.806 23.5 725.5 23.5H732.175C740.01 23.5 745.954 15.6848 752.956 12.1688C754.346 11.4706 756.01 11.0306 758 11C764.035 10.907 768.43 14.7139 771.159 18.1499C773.549 21.1584 776.982 23.5 780.824 23.5H782C786.694 23.5 790.5 27.3055 790.5 32C790.5 36.6944 786.694 40.5 782 40.5Z" fill="white"/>
<path d="M445.543 92H422.457C420.548 92 419 90.4521 419 88.5426C419 86.6331 420.548 85.0851 422.457 85.0851H425.195C428.392 85.0851 430.823 81.8931 433.687 80.4705C434.252 80.1898 434.928 80.0131 435.735 80.0007C438.196 79.9629 439.989 81.5089 441.103 82.9057C442.081 84.1309 443.481 85.0851 445.049 85.0851H445.543C447.452 85.0851 449 86.6331 449 88.5426C449 90.4521 447.452 92 445.543 92Z" fill="white"/>
<path d="M118.39 58H87.6099C85.0639 58 83 55.9361 83 53.3901C83 50.8441 85.0639 48.7802 87.6099 48.7802H91.2597C95.5232 48.7802 98.7644 44.5241 102.583 42.6274C103.336 42.2531 104.237 42.0174 105.313 42.0009C108.595 41.9505 110.985 44.0119 112.471 45.8742C113.774 47.5078 115.642 48.7802 117.731 48.7802H118.39C120.936 48.7802 123 50.8441 123 53.3901C123 55.9361 120.936 58 118.39 58Z" fill="white"/>
<path d="M71.3901 50H40.6099C38.0639 50 36 47.9361 36 45.3901C36 42.8441 38.0639 40.7802 40.6099 40.7802H44.2597C48.5232 40.7802 51.7644 36.5241 55.5827 34.6274C56.3362 34.2531 57.2369 34.0174 58.3129 34.0009C61.5946 33.9505 63.9852 36.0119 65.4709 37.8742C66.7741 39.5078 68.6417 40.7802 70.7314 40.7802H71.3901C73.9361 40.7802 76 42.8441 76 45.3901C76 47.9361 73.9361 50 71.3901 50Z" fill="white"/>
<path d="M35.3901 28H4.60991C2.06393 28 0 25.9361 0 23.3901C0 20.8441 2.06393 18.7802 4.60991 18.7802H8.25973C12.5232 18.7802 15.7644 14.5241 19.5827 12.6274C20.3362 12.2531 21.2369 12.0174 22.3129 12.0009C25.5946 11.9505 27.9852 14.0119 29.4709 15.8742C30.7741 17.5078 32.6417 18.7802 34.7314 18.7802H35.3901C37.9361 18.7802 40 20.8441 40 23.3901C40 25.9361 37.9361 28 35.3901 28Z" fill="white"/>
<path d="M881 64.5017H824.5C819.806 64.5017 816 60.6961 816 56.0017C816 51.3072 819.806 47.5017 824.5 47.5017H831.175C839.01 47.5017 844.954 39.6865 851.956 36.1705C853.346 35.4723 855.01 35.0323 857 35.0017C863.035 34.9087 867.43 38.7156 870.159 42.1516C872.549 45.1601 875.982 47.5017 879.824 47.5017H881C885.694 47.5017 889.5 51.3072 889.5 56.0017C889.5 60.6961 885.694 64.5017 881 64.5017Z" fill="white"/>
<path d="M944 29.5017H887.5C882.806 29.5017 879 25.6961 879 21.0017C879 16.3072 882.806 12.5017 887.5 12.5017H894.175C902.01 12.5017 907.954 4.68649 914.956 1.17047C916.346 0.472334 918.01 0.032335 920 0.00167847C926.035 -0.0912839 930.43 3.7156 933.159 7.1516C935.549 10.1601 938.982 12.5017 942.824 12.5017H944C948.694 12.5017 952.5 16.3072 952.5 21.0017C952.5 25.6961 948.694 29.5017 944 29.5017Z" fill="white"/>
</svg>
