<svg width="25" height="48" viewBox="0 0 25 48" fill="none" xmlns="http://www.w3.org/2000/svg">
<path d="M9.89258 21.3134L9.23435 21.3589L9.39454 21.9989C9.79257 23.5893 10.6279 24.8541 11.891 25.7718C13.1541 26.6895 14.6151 27.0931 16.2507 26.9802L16.9089 26.9347L16.7487 26.2947C16.3507 24.7043 15.5153 23.4395 14.2522 22.5218C12.9891 21.6041 11.5281 21.2005 9.89258 21.3134ZM23.9856 19.0225L23.3455 19.1827C21.7551 19.5807 20.4904 20.4161 19.5727 21.6792C18.655 22.9423 18.2513 24.4033 18.3643 26.0388L18.4097 26.697L19.0497 26.5369C20.6401 26.1388 21.9049 25.3035 22.8226 24.0404C23.7403 22.7773 24.1439 21.3163 24.031 19.6807L23.9856 19.0225ZM8.60234 15.7802L7.99935 16.048L8.36879 16.5947C9.28676 17.953 10.5043 18.8558 12.0051 19.2861C13.5059 19.7165 15.0168 19.5961 16.5151 18.9306L17.1181 18.6628L16.7487 18.1161C15.8307 16.7578 14.6132 15.855 13.1124 15.4246C11.6116 14.9943 10.1006 15.1147 8.60234 15.7802ZM21.0619 8.80733L20.5152 9.17677C19.1569 10.0947 18.2541 11.3123 17.8237 12.8131C17.3934 14.3139 17.5138 15.8248 18.1793 17.3231L18.4471 17.9261L18.9938 17.5567C20.3521 16.6387 21.2549 15.4212 21.6853 13.9204C22.1156 12.4196 21.9952 10.9086 21.3297 9.41032L21.0619 8.80733ZM4.44135 10.1666L3.88151 10.5158L4.32343 11.0057C5.42152 12.2231 6.75285 12.9476 8.29894 13.1649C9.84503 13.3822 11.3245 13.0527 12.7156 12.1851L13.2755 11.836L12.8335 11.3461C11.7354 10.1287 10.4041 9.40416 8.85802 9.18687C7.31193 8.96958 5.83245 9.29909 4.44135 10.1666ZM15.8092 1.5276L15.3193 1.96952C14.1019 3.06761 13.3774 4.39894 13.1601 5.94503C12.9428 7.49112 13.2723 8.97059 14.1398 10.3617L14.489 10.9215L14.9789 10.4796C16.1963 9.38153 16.9208 8.0502 17.1381 6.50411C17.3554 4.95802 17.0259 3.47854 16.1584 2.08745L15.8092 1.5276ZM3.49336 0L3.55145 0.65723C3.69579 2.29031 4.323 3.67017 5.42699 4.77417C6.53099 5.87816 7.91085 6.50537 9.54393 6.64971L10.2012 6.7078L10.1431 6.05057C9.99873 4.41749 9.37152 3.03763 8.26752 1.93363C7.16353 0.829638 5.78367 0.202428 4.15059 0.0580889L3.49336 0ZM8.39241 43.9824C6.83137 44.0097 5.42166 44.5666 4.1834 45.6411L3.68506 46.0735L4.19818 46.4882C5.47319 47.5189 6.90148 48.0262 8.46252 47.999C10.0236 47.9717 11.4333 47.4148 12.6715 46.3403L13.1699 45.9079L12.6568 45.4932C11.3817 44.4626 9.95346 43.9552 8.39241 43.9824ZM2.42646 35.5331L2.0117 36.0463C0.981094 37.3213 0.47374 38.7495 0.500988 40.3106C0.528236 41.8716 1.08513 43.2814 2.1596 44.5196L2.59202 45.0179L3.00679 44.5048C4.03739 43.2298 4.54474 41.8015 4.5175 40.2405C4.49025 38.6794 3.93335 37.2697 2.85888 36.0315L2.42646 35.5331ZM14.5141 38.0498C13.0133 38.4802 11.7957 39.383 10.8777 40.7413L10.5083 41.288L11.1113 41.5558C12.6096 42.2213 14.1205 42.3417 15.6213 41.9113C17.1221 41.481 18.3397 40.5782 19.2576 39.2199L19.6271 38.6732L19.0241 38.4054C17.5258 37.7399 16.0149 37.6195 14.5141 38.0498ZM6.56454 31.4325L6.29672 32.0355C5.63123 33.5338 5.51083 35.0448 5.94118 36.5456C6.37152 38.0464 7.2743 39.2639 8.63265 40.1819L9.17931 40.5513L9.44714 39.9483C10.1126 38.45 10.233 36.9391 9.80268 35.4383C9.37233 33.9375 8.46955 32.7199 7.11121 31.802L6.56454 31.4325ZM23.5083 29.122C21.869 29.0948 20.4312 29.5743 19.2178 30.5569C18.0045 31.5394 17.2365 32.8462 16.9222 34.4552L16.7958 35.1028L17.4555 35.1137C19.0947 35.1409 20.5325 34.6613 21.7459 33.6788C22.9592 32.6962 23.7272 31.3895 24.0415 29.7804L24.168 29.1329L23.5083 29.122ZM9.31468 27.5717L9.30375 28.2314C9.2766 29.8707 9.75614 31.3085 10.7387 32.5219C11.7212 33.7352 13.028 34.5032 14.637 34.8175L15.2846 34.9439L15.2955 34.2842C15.3227 32.645 14.8431 31.2072 13.8606 29.9938C12.878 28.7805 11.5713 28.0125 9.96224 27.6982L9.31468 27.5717Z" fill="#2FC535"/>
</svg>
