<svg width="25" height="48" viewBox="0 0 25 48" fill="none" xmlns="http://www.w3.org/2000/svg">
<path d="M15.1074 21.3134L15.7656 21.3589L15.6055 21.9989C15.2074 23.5893 14.3721 24.8541 13.109 25.7718C11.8459 26.6895 10.3849 27.0931 8.74933 26.9802L8.0911 26.9347L8.25129 26.2947C8.64932 24.7043 9.48467 23.4395 10.7478 22.5218C12.0109 21.6041 13.4719 21.2005 15.1074 21.3134ZM1.01442 19.0225L1.65447 19.1827C3.24487 19.5807 4.50962 20.4161 5.42732 21.6792C6.34502 22.9423 6.74865 24.4033 6.63575 26.0388L6.59031 26.697L5.95025 26.5369C4.35986 26.1388 3.0951 25.3035 2.1774 24.0404C1.2597 22.7773 0.856073 21.3163 0.968981 19.6807L1.01442 19.0225ZM16.3977 15.7802L17.0007 16.048L16.6312 16.5947C15.7132 17.953 14.4957 18.8558 12.9949 19.2861C11.4941 19.7165 9.98316 19.5961 8.48486 18.9306L7.88187 18.6628L8.25131 18.1161C9.16928 16.7578 10.3868 15.855 11.8876 15.4246C13.3884 14.9943 14.8994 15.1147 16.3977 15.7802ZM3.93812 8.80733L4.48478 9.17677C5.84313 10.0947 6.74591 11.3123 7.17625 12.8131C7.6066 14.3139 7.4862 15.8248 6.82071 17.3231L6.55289 17.9261L6.00622 17.5567C4.64787 16.6387 3.7451 15.4212 3.31475 13.9204C2.8844 12.4196 3.0048 10.9086 3.67029 9.41032L3.93812 8.80733ZM20.5586 10.1666L21.1185 10.5158L20.6766 11.0057C19.5785 12.2231 18.2471 12.9476 16.7011 13.1649C15.155 13.3822 13.6755 13.0527 12.2844 12.1851L11.7245 11.836L12.1665 11.3461C13.2646 10.1287 14.5959 9.40416 16.142 9.18687C17.6881 8.96958 19.1675 9.29909 20.5586 10.1666ZM9.19079 1.5276L9.68072 1.96952C10.8981 3.06761 11.6226 4.39894 11.8399 5.94503C12.0572 7.49112 11.7277 8.97059 10.8602 10.3617L10.511 10.9215L10.0211 10.4796C8.80372 9.38153 8.07918 8.0502 7.86189 6.50411C7.6446 4.95802 7.97411 3.47854 8.84165 2.08745L9.19079 1.5276ZM21.5066 0L21.4486 0.65723C21.3042 2.29031 20.677 3.67017 19.573 4.77417C18.469 5.87816 17.0892 6.50537 15.4561 6.64971L14.7988 6.7078L14.8569 6.05057C15.0013 4.41749 15.6285 3.03763 16.7325 1.93363C17.8365 0.829638 19.2163 0.202428 20.8494 0.0580889L21.5066 0ZM16.6076 43.9824C18.1686 44.0097 19.5783 44.5666 20.8166 45.6411L21.3149 46.0735L20.8018 46.4882C19.5268 47.5189 18.0985 48.0262 16.5375 47.999C14.9764 47.9717 13.5667 47.4148 12.3285 46.3403L11.8301 45.9079L12.3432 45.4932C13.6183 44.4626 15.0465 43.9552 16.6076 43.9824ZM22.5735 35.5331L22.9883 36.0463C24.0189 37.3213 24.5263 38.7495 24.499 40.3106C24.4718 41.8716 23.9149 43.2814 22.8404 44.5196L22.408 45.0179L21.9932 44.5048C20.9626 43.2298 20.4553 41.8015 20.4825 40.2405C20.5098 38.6794 21.0666 37.2697 22.1411 36.0315L22.5735 35.5331ZM10.4859 38.0498C11.9867 38.4802 13.2043 39.383 14.1223 40.7413L14.4917 41.288L13.8887 41.5558C12.3904 42.2213 10.8795 42.3417 9.37868 41.9113C7.87787 41.481 6.66033 40.5782 5.74236 39.2199L5.37292 38.6732L5.97591 38.4054C7.47421 37.7399 8.98514 37.6195 10.4859 38.0498ZM18.4355 31.4325L18.7033 32.0355C19.3688 33.5338 19.4892 35.0448 19.0588 36.5456C18.6285 38.0464 17.7257 39.2639 16.3674 40.1819L15.8207 40.5513L15.5529 39.9483C14.8874 38.45 14.767 36.9391 15.1973 35.4383C15.6277 33.9375 16.5304 32.7199 17.8888 31.802L18.4355 31.4325ZM1.49173 29.122C3.13095 29.0948 4.56882 29.5743 5.78216 30.5569C6.99551 31.5394 7.76352 32.8462 8.07777 34.4552L8.20424 35.1028L7.54454 35.1137C5.90532 35.1409 4.46745 34.6613 3.25411 33.6788C2.04076 32.6962 1.27275 31.3895 0.958502 29.7804L0.832031 29.1329L1.49173 29.122ZM15.6853 27.5717L15.6962 28.2314C15.7234 29.8707 15.2439 31.3085 14.2613 32.5219C13.2788 33.7352 11.972 34.5032 10.363 34.8175L9.71542 34.9439L9.70449 34.2842C9.67734 32.645 10.1569 31.2072 11.1394 29.9938C12.122 28.7805 13.4287 28.0125 15.0378 27.6982L15.6853 27.5717Z" fill="#2FC535"/>
</svg>
