<svg width="170" height="345" viewBox="0 0 170 345" fill="none" xmlns="http://www.w3.org/2000/svg">
<path d="M156 116.174C156 166.156 124.436 181 85.5 181C46.5639 181 15 166.156 15 116.174C15 67.7767 52.9726 58.342 82.6165 5.34849C84.4387 2.09102 87.8694 -0.114909 91.5455 0.531438C127.652 6.87975 156 68.8062 156 116.174Z" fill="#ED2207"/>
<path d="M40 136.866C40 168.581 60.371 178 85.5 178C110.629 178 131 168.581 131 136.866C131 108.085 114.53 96.6511 107.745 54.0522C106.659 47.2317 99.4051 43.0629 93.5282 46.6906C56.7362 69.4011 40 108.21 40 136.866Z" fill="#FF7527"/>
<path d="M114 147.855C114 168.013 101.24 174 85.5 174C69.7599 174 57 168.013 57 147.855C57 129.287 69.6182 116.878 81.0869 96.8289C82.9385 93.592 86.5162 91.312 89.7954 93.0877C103.075 100.279 114 130.21 114 147.855Z" fill="#FFCA42"/>
<path d="M16 186H154L150.764 224.83C150.332 230.013 146 234 140.799 234H29.2013C24.0004 234 19.6678 230.013 19.2359 224.83L16 186Z" fill="#C7C8D0"/>
<path d="M156.5 168C162.922 168 167.278 174.533 164.808 180.462C163.41 183.815 160.133 186 156.5 186H13.5C9.8667 186 6.58973 183.815 5.19231 180.462C2.72223 174.533 7.0778 168 13.5 168H156.5Z" fill="#696B76"/>
<path d="M136.5 234C142.922 234 147.278 240.533 144.808 246.462C143.41 249.815 140.133 252 136.5 252H33.5C29.8667 252 26.5897 249.815 25.1923 246.462C22.7222 240.533 27.0778 234 33.5 234H136.5Z" fill="#696B76"/>
<path d="M127 252L122.816 345H47.1837L43 252H127Z" fill="#C7C8D0"/>
</svg>
