<svg id="Layer_1" data-name="Layer 1" xmlns="http://www.w3.org/2000/svg" width="661.8" height="126.7" viewBox="0 0 661.8 126.7"><defs><style>.cls-1{fill:#e5213c;}.cls-2{fill:#fff;}</style></defs><path class="cls-1" d="M370.2,22.5c12.3,0,20.4,2.7,26.7,7.3a39,39,0,0,1,15.5,31.6A39,39,0,0,1,397,92.9c-6.4,4.7-14.5,7.4-26.8,7.4H345.7V22.5Zm21.5,22c-4.3-5.5-10.6-8.7-19.9-8.7H360.7V86.9h11.1c9.3,0,15.6-3.2,19.9-8.6a27.1,27.1,0,0,0,5.7-16.9A26.7,26.7,0,0,0,391.7,44.5Z"/><path class="cls-1" d="M502.1,97.3c0,9.6-1.6,14.1-4.8,18.6-4.9,6.8-13.6,10.8-23.9,10.8s-20.6-4.9-25.9-11.1l9.1-9.4c2.9,3.1,7.9,7.7,16.8,7.7,4.6,0,8.5-1.4,11-4.3s3.3-5.8,3.3-12.6v-.5a22.8,22.8,0,0,1-14.4,4.9,27.7,27.7,0,0,1-20.5-9.1A29.1,29.1,0,0,1,446,73.4c0-15.9,11.8-28.1,26.5-28.1a25.2,25.2,0,0,1,15.8,5.4V46.4h13.8Zm-14.4-32a16.6,16.6,0,0,0-13.3-6.7c-8.5,0-13.9,7-13.9,14.8S466.6,88,474.7,88a15.7,15.7,0,0,0,13-6.6Z"/><path class="cls-1" d="M522,21.3a8.7,8.7,0,1,1-8.8,8.6A8.7,8.7,0,0,1,522,21.3Zm7.3,79H514.8V46.4h14.5Z"/><path class="cls-1" d="M429.3,21.3a8.7,8.7,0,1,1,0,17.3,8.7,8.7,0,1,1,0-17.3Zm7.2,79H422.1V46.4h14.4Z"/><path class="cls-1" d="M573.6,100.3a38.8,38.8,0,0,1-9,1.1c-8.7,0-15-2.9-18.7-7.8s-4-8.5-4-16.1V31.4h14.5v15h15.1V58.6H556.4V79.1c0,3.4.5,5.4,1.7,6.8s3.8,2.7,7.4,2.7a28.2,28.2,0,0,0,5.9-.6Z"/><path class="cls-1" d="M634.7,100.3H620.8V95.9a22.5,22.5,0,0,1-15,5.5,27.2,27.2,0,0,1-20.3-9.1,29.2,29.2,0,0,1-6.9-18.9c0-15.9,11.8-28.1,26.4-28.1a24.9,24.9,0,0,1,15.8,5.4V46.4h13.9Zm-14.5-35a16.5,16.5,0,0,0-13.3-6.7c-8.4,0-13.9,7-13.9,14.8S599.1,88,607.2,88a15.5,15.5,0,0,0,13-6.6Z"/><path class="cls-1" d="M661.8,100.3H647.4V22.5h14.4Z"/><rect class="cls-1" width="323.2" height="122.74"/><polygon class="cls-2" points="200.5 100.3 181.7 100.3 141.6 53.2 141.6 100.3 122.7 100.3 122.7 22.5 141.6 22.5 181.7 69.5 181.7 22.5 200.5 22.5 200.5 100.3"/><path class="cls-2" d="M261.9,22.5H223V41.3h9.9V81.4H223v18.9h38.9a38.9,38.9,0,1,0,0-77.8Zm0,58.9H251.7V41.3h10.2a20.1,20.1,0,0,1,0,40.1Z"/><path class="cls-2" d="M61.4,22.5A38.9,38.9,0,0,0,22.5,61.4v38.9H41.3v-10H81.4v10h18.9V61.4A38.9,38.9,0,0,0,61.4,22.5Zm20,49H41.3V61.4a20.1,20.1,0,1,1,40.1,0Z"/></svg>