<?xml version="1.0" encoding="UTF-8" standalone="no"?><!DOCTYPE svg PUBLIC "-//W3C//DTD SVG 1.1//EN" "http://www.w3.org/Graphics/SVG/1.1/DTD/svg11.dtd"><svg width="100%" height="100%" viewBox="0 0 3751 1667" version="1.1" xmlns="http://www.w3.org/2000/svg" xmlns:xlink="http://www.w3.org/1999/xlink" xml:space="preserve" xmlns:serif="http://www.serif.com/" style="fill-rule:evenodd;clip-rule:evenodd;stroke-linejoin:round;stroke-miterlimit:2;"><rect id="Bitrise-Logo-No-Background" serif:id="Bitrise Logo No Background" x="0.545" y="0" width="3750" height="1666.67" style="fill:none;"/><path d="M1102.04,989.81c51.429,0 93.121,-41.696 93.121,-93.125l-186.246,0c0,51.429 41.692,93.125 93.125,93.125Z" style="fill:#6f309f;fill-rule:nonzero;"/><path d="M893.9,781.681c-31.759,0 -57.505,25.746 -57.505,57.5l115.005,0c-0,-31.754 -25.746,-57.5 -57.5,-57.5Z" style="fill:#6f309f;fill-rule:nonzero;"/><path d="M1310.6,781.694c-31.758,-0 -57.5,25.746 -57.5,57.5l114.996,-0c0,-31.754 -25.741,-57.5 -57.496,-57.5Z" style="fill:#6f309f;fill-rule:nonzero;"/><path d="M1102.04,494.121c23.761,-0 43.023,-19.262 43.023,-43.018c0,-23.766 -19.262,-43.028 -43.023,-43.028c-23.76,0 -43.023,19.262 -43.023,43.028c0,23.756 19.263,43.018 43.023,43.018Z" style="fill:#6f309f;fill-rule:nonzero;"/><path d="M1446.93,1037.88c-11.621,13.008 -27.629,20.621 -45.075,21.442c-71.883,3.362 -182.242,7.371 -299.817,7.371c-117.575,-0 -227.933,-4.009 -299.816,-7.371c-17.446,-0.821 -33.455,-8.434 -45.08,-21.446c-11.591,-12.979 -17.345,-29.696 -16.204,-47.063c3.792,-57.5 8.921,-108.408 15.238,-151.308c9.375,-63.658 23.471,-128.292 33.65,-171.304c6.562,-27.763 30.104,-47.608 58.579,-49.379c52.125,-3.25 138.437,-7.125 253.633,-7.125c115.188,-0 201.509,3.875 253.638,7.125c28.471,1.771 52.008,21.616 58.575,49.379c10.183,43.033 24.283,107.683 33.65,171.304c6.312,42.9 11.441,93.808 15.233,151.308c1.142,17.371 -4.612,34.088 -16.204,47.067Zm57.854,-206.75c-9.662,-65.646 -24.137,-132.033 -34.575,-176.167c-12.442,-52.583 -57.029,-90.171 -110.958,-93.529c-52.942,-3.3 -140.542,-7.237 -257.213,-7.237c-116.675,-0 -204.275,3.937 -257.208,7.237c-53.933,3.358 -98.529,40.946 -110.963,93.529c-10.437,44.109 -24.904,110.475 -34.579,176.167c-6.541,44.413 -11.833,96.867 -15.721,155.9c-2.175,32.9 8.73,64.558 30.692,89.154c21.992,24.621 52.279,39.029 85.279,40.575c72.492,3.392 183.809,7.438 302.5,7.438c118.684,-0 230.009,-4.046 302.5,-7.438c33,-1.546 63.284,-15.954 85.275,-40.575c21.967,-24.592 32.867,-56.25 30.692,-89.154c-3.892,-59.033 -9.179,-111.487 -15.721,-155.9Z" style="fill:#6f309f;fill-rule:nonzero;"/><path d="M1808.19,939.723c-31.366,-0 -57.912,-26.55 -57.912,-65.159c-0,-38.608 26.546,-65.154 57.912,-65.154c31.371,0 57.917,26.546 57.917,65.154c-0,38.609 -26.546,65.159 -57.917,65.159Zm12.067,-188.221c-45.85,0 -69.979,33.779 -69.979,33.779l-0,-130.304l-65.154,0l-0,337.833l65.154,0l-0,-28.958c-0,0 24.129,33.783 69.979,33.783c60.329,0 113.417,-53.087 113.417,-123.071c-0,-69.979 -53.088,-123.062 -113.417,-123.062Z" style="fill:#6f309f;fill-rule:nonzero;"/><rect x="1984.34" y="756.327" width="65.154" height="236.483" style="fill:#6f309f;fill-rule:nonzero;"/><path d="M2015.71,652.56c-21.717,0 -36.196,14.48 -36.196,36.2c0,21.717 14.479,36.196 36.196,36.196c24.129,0 38.608,-14.479 38.608,-36.196c0,-21.72 -14.479,-36.2 -38.608,-36.2Z" style="fill:#6f309f;fill-rule:nonzero;"/><path d="M2201.52,913.173l0,-94.109l48.259,0l-0,-57.912l-48.259,0l0,-74.808l-57.916,-0l-0,43.437c-0,19.304 -12.067,31.371 -26.546,31.371l-21.717,0l0,57.912l41.025,0l0,96.526c0,55.504 26.542,82.045 74.804,82.045c24.134,0 43.438,-7.237 43.438,-7.237l-0,-55.504c-0,-0 -9.654,4.829 -24.129,4.829c-16.896,-0 -28.959,-12.067 -28.959,-26.55Z" style="fill:#6f309f;fill-rule:nonzero;"/><path d="M2375.25,785.281l-0,-28.954l-65.154,-0l-0,236.483l65.154,0l-0,-113.416c-0,-41.025 21.716,-62.742 55.5,-62.742c14.479,0 21.721,2.412 21.721,2.412l-0,-65.154l-9.654,0c-43.434,0 -67.567,31.371 -67.567,31.371Z" style="fill:#6f309f;fill-rule:nonzero;"/><rect x="2491.08" y="756.327" width="65.154" height="236.483" style="fill:#6f309f;fill-rule:nonzero;"/><path d="M2522.45,652.56c-21.716,0 -36.195,14.48 -36.195,36.2c-0,21.717 14.479,36.196 36.195,36.196c24.13,0 38.609,-14.479 38.609,-36.196c-0,-21.72 -14.479,-36.2 -38.609,-36.2Z" style="fill:#6f309f;fill-rule:nonzero;"/><path d="M2684.12,826.306c0,-9.654 9.65,-19.304 28.955,-19.304c24.133,-0 38.608,19.304 38.608,19.304l33.783,-38.612c0,-0 -26.541,-36.192 -82.045,-36.192c-53.088,0 -91.696,38.604 -91.696,74.804c-0,78.184 108.591,60.325 108.591,96.525c0,12.063 -9.654,21.717 -31.37,21.717c-31.371,-0 -50.676,-26.542 -50.676,-26.542l-36.2,36.192c0,-0 28.959,43.437 96.525,43.437c60.33,0 94.113,-33.783 94.113,-74.804c-0,-79.633 -108.588,-62.746 -108.588,-96.525Z" style="fill:#6f309f;fill-rule:nonzero;"/><path d="M2894.05,850.435c7.241,-24.129 26.545,-43.433 55.504,-43.433c28.954,-0 48.262,19.304 53.087,43.433l-108.591,0Zm173.745,19.304c0,-67.562 -50.675,-118.237 -118.241,-118.237c-67.567,0 -123.067,55.5 -123.067,123.062c-0,67.571 55.5,123.071 125.479,123.071c65.154,0 101.35,-41.025 101.35,-41.025l-33.783,-43.437c-0,-0 -21.717,28.962 -62.742,28.962c-36.196,0 -57.912,-21.716 -62.741,-45.85l171.333,0c-0,0 2.412,-9.654 2.412,-26.546Z" style="fill:#6f309f;fill-rule:nonzero;"/></svg>