<svg width="2349" height="500" viewBox="0 0 2349 500" fill="none" xmlns="http://www.w3.org/2000/svg">
<g clip-path="url(#clip0_3365_136)">
<path d="M611.52 323.12V166.88C611.52 154.84 621.04 145.32 633.08 145.32C645.12 145.32 654.64 154.84 654.64 166.88V232.68L734.16 153.72C739.48 148.4 744.8 145.32 752.36 145.32C764.4 145.32 772.24 154.56 772.24 165.2C772.24 171.92 769.16 176.96 764.4 181.44L709.24 232.96L769.44 308.56C772.8 312.76 775.32 317.24 775.32 323.68C775.32 335.72 766.08 344.68 753.48 344.68C745.08 344.68 740.04 340.48 735.28 334.32L679.28 260.96L654.64 283.92V323.12C654.64 335.16 645.12 344.68 633.08 344.68C621.04 344.68 611.52 335.16 611.52 323.12ZM871.539 346.36C825.059 346.36 790.619 311.92 790.619 268.8V268.24C790.619 225.12 825.339 190.12 872.099 190.12C918.579 190.12 953.019 224.56 953.019 267.68V268.24C953.019 311.36 918.299 346.36 871.539 346.36ZM872.099 309.68C896.459 309.68 911.019 290.92 911.019 268.8V268.24C911.019 246.12 895.059 226.8 871.539 226.8C847.179 226.8 832.619 245.56 832.619 267.68V268.24C832.619 290.36 848.579 309.68 872.099 309.68ZM1034.52 345.52C1008.48 345.52 990.837 335.16 990.837 300.44V229.32H989.437C979.357 229.32 971.237 221.2 971.237 211.12C971.237 201.04 979.357 192.92 989.437 192.92H990.837V174.16C990.837 162.4 1000.36 152.88 1012.12 152.88C1023.88 152.88 1033.4 162.4 1033.4 174.16V192.92H1052.16C1062.24 192.92 1070.36 201.04 1070.36 211.12C1070.36 221.2 1062.24 229.32 1052.16 229.32H1033.4V293.44C1033.4 303.24 1037.6 308 1047.12 308C1048.52 308 1051.32 307.72 1052.16 307.72C1061.68 307.72 1069.8 315.56 1069.8 325.36C1069.8 332.92 1064.76 339.08 1058.88 341.32C1051.04 344.4 1043.76 345.52 1034.52 345.52ZM1102.01 323.4V158.2C1102.01 146.44 1111.53 136.92 1123.29 136.92C1135.05 136.92 1144.57 146.44 1144.57 158.2V323.4C1144.57 335.16 1135.05 344.68 1123.29 344.68C1111.53 344.68 1102.01 335.16 1102.01 323.4ZM1183.98 157.64V157.08C1183.98 144.76 1194.34 137.2 1207.78 137.2C1221.22 137.2 1231.58 144.76 1231.58 157.08V157.64C1231.58 169.96 1221.22 177.8 1207.78 177.8C1194.34 177.8 1183.98 169.96 1183.98 157.64ZM1186.5 323.4V212.52C1186.5 200.76 1196.02 191.24 1207.78 191.24C1219.54 191.24 1229.06 200.76 1229.06 212.52V323.4C1229.06 335.16 1219.54 344.68 1207.78 344.68C1196.02 344.68 1186.5 335.16 1186.5 323.4ZM1269.03 323.4V212.52C1269.03 200.76 1278.55 191.24 1290.31 191.24C1302.07 191.24 1311.59 200.76 1311.59 212.52V214.2C1321.39 201.6 1333.99 190.12 1355.55 190.12C1387.75 190.12 1406.51 211.4 1406.51 245.84V323.4C1406.51 335.16 1396.99 344.68 1385.23 344.68C1373.47 344.68 1363.95 335.16 1363.95 323.4V259.28C1363.95 239.12 1354.43 228.76 1338.19 228.76C1321.95 228.76 1311.59 239.12 1311.59 259.28V323.4C1311.59 335.16 1302.07 344.68 1290.31 344.68C1278.55 344.68 1269.03 335.16 1269.03 323.4ZM1447.97 321.44V166.88C1447.97 154.84 1457.49 145.32 1469.53 145.32C1481.57 145.32 1491.09 154.84 1491.09 166.88V303.8H1570.89C1581.81 303.8 1590.49 312.48 1590.49 323.4C1590.49 334.32 1581.81 343 1570.89 343H1469.53C1457.49 343 1447.97 333.48 1447.97 321.44ZM1648.55 256.2H1712.67C1710.15 237.16 1698.95 224.28 1681.03 224.28C1663.39 224.28 1651.91 236.88 1648.55 256.2ZM1737.31 328.16C1724.15 339.36 1707.07 346.36 1685.23 346.36C1640.15 346.36 1606.83 314.72 1606.83 268.8V268.24C1606.83 225.4 1637.35 190.12 1681.03 190.12C1731.15 190.12 1753.27 231.28 1753.27 262.36C1753.27 274.68 1744.59 282.8 1733.39 282.8H1649.11C1653.31 302.12 1666.75 312.2 1685.79 312.2C1697.55 312.2 1707.35 308.56 1716.03 302.12C1719.11 299.88 1721.91 298.76 1726.39 298.76C1735.91 298.76 1742.91 306.04 1742.91 315.56C1742.91 321.16 1740.39 325.36 1737.31 328.16ZM1820.27 256.2H1884.39C1881.87 237.16 1870.67 224.28 1852.75 224.28C1835.11 224.28 1823.63 236.88 1820.27 256.2ZM1909.03 328.16C1895.87 339.36 1878.79 346.36 1856.95 346.36C1811.87 346.36 1778.55 314.72 1778.55 268.8V268.24C1778.55 225.4 1809.07 190.12 1852.75 190.12C1902.87 190.12 1924.99 231.28 1924.99 262.36C1924.99 274.68 1916.31 282.8 1905.11 282.8H1820.83C1825.03 302.12 1838.47 312.2 1857.51 312.2C1869.27 312.2 1879.07 308.56 1887.75 302.12C1890.83 299.88 1893.63 298.76 1898.11 298.76C1907.63 298.76 1914.63 306.04 1914.63 315.56C1914.63 321.16 1912.11 325.36 1909.03 328.16ZM2108.47 158.2V323.4C2108.47 335.16 2098.95 344.68 2087.19 344.68C2075.43 344.68 2065.91 335.16 2065.91 323.4V321.44C2055.55 335.44 2041.27 345.8 2019.15 345.8C1984.15 345.8 1950.83 318.36 1950.83 268.24V267.68C1950.83 217.56 1983.59 190.12 2019.15 190.12C2041.83 190.12 2055.83 200.48 2065.91 212.52V158.2C2065.91 146.44 2075.43 136.92 2087.19 136.92C2098.95 136.92 2108.47 146.44 2108.47 158.2ZM2030.07 226.24C2010.19 226.24 1993.39 242.48 1993.39 267.68V268.24C1993.39 293.16 2010.19 309.68 2030.07 309.68C2049.95 309.68 2066.47 293.16 2066.47 268.24V267.68C2066.47 242.76 2049.95 226.24 2030.07 226.24ZM2199.13 345.8C2180.65 345.8 2160.77 340.48 2142.57 328.72C2138.09 325.92 2134.45 320.88 2134.45 314.16C2134.45 304.64 2141.73 297.36 2151.25 297.36C2154.33 297.36 2157.41 298.2 2159.65 299.6C2173.93 308.56 2188.21 313.04 2200.25 313.04C2212.57 313.04 2218.17 308.56 2218.17 301.84V301.28C2218.17 292.04 2203.61 288.96 2187.09 283.92C2166.09 277.76 2142.29 267.96 2142.29 238.84V238.28C2142.29 207.76 2166.93 190.68 2197.17 190.68C2212.85 190.68 2229.09 194.88 2243.65 202.16C2249.81 205.24 2253.73 210.84 2253.73 218.12C2253.73 227.64 2246.17 234.92 2236.65 234.92C2233.57 234.92 2231.61 234.36 2228.81 232.96C2216.77 227.08 2205.29 223.44 2196.33 223.44C2185.97 223.44 2180.65 227.92 2180.65 233.8V234.36C2180.65 242.76 2194.93 246.68 2211.17 252.28C2232.17 259.28 2256.53 269.36 2256.53 296.8V297.36C2256.53 330.68 2231.61 345.8 2199.13 345.8Z" fill="white"/>
<path d="M331.448 62.2858C332.337 62.2818 333.225 62.2778 334.141 62.2737C337.072 62.2629 340.002 62.2636 342.933 62.2654C344.97 62.2624 347.007 62.259 349.044 62.2552C353.31 62.2488 357.575 62.2495 361.841 62.2538C366.772 62.2585 371.703 62.2488 376.634 62.2322C381.382 62.2168 386.13 62.2144 390.878 62.2172C392.897 62.2168 394.917 62.2126 396.936 62.2048C399.753 62.1952 402.57 62.2004 405.386 62.2095C406.225 62.2035 407.064 62.1976 407.929 62.1914C408.694 62.1969 409.46 62.2024 410.248 62.208C410.914 62.2079 411.58 62.2078 412.266 62.2076C414.369 62.5692 415.073 63.1259 416.313 64.8441C416.456 68.4933 415.585 70.55 413.21 73.1931C412.17 74.244 411.117 75.2821 410.054 76.3098C409.481 76.8822 408.908 77.4545 408.318 78.0443C406.424 79.9309 404.514 81.8004 402.604 83.6704C401.282 84.9815 399.962 86.2937 398.642 87.6069C395.165 91.0613 391.675 94.5018 388.181 97.9391C383.946 102.111 379.725 106.297 375.504 110.483C372.218 113.742 368.929 116.997 365.632 120.244C365.024 120.844 364.417 121.444 363.791 122.062C362.663 123.175 361.533 124.287 360.402 125.397C357.498 128.268 354.83 131.21 352.25 134.375C351.266 135.282 350.259 136.165 349.223 137.012C346.381 139.418 344.012 142.037 341.661 144.919C341.288 145.307 340.915 145.695 340.531 146.094C340.016 146.094 339.5 146.094 338.969 146.094C338.792 146.525 338.615 146.956 338.433 147.4C337.097 149.768 335.408 151.41 333.481 153.332C333.078 153.737 332.675 154.141 332.259 154.558C330.907 155.913 329.55 157.261 328.193 158.61C327.222 159.58 326.252 160.55 325.283 161.521C322.649 164.155 320.01 166.785 317.371 169.413C314.613 172.161 311.86 174.913 309.106 177.665C303.891 182.875 298.672 188.082 293.452 193.287C287.508 199.212 281.57 205.142 275.631 211.073C263.415 223.272 251.194 235.466 238.969 247.657C242.352 251.701 245.902 255.479 249.639 259.197C250.219 259.777 250.799 260.356 251.396 260.954C253.296 262.854 255.199 264.751 257.102 266.648C258.427 267.971 259.752 269.294 261.076 270.618C264.55 274.089 268.026 277.557 271.502 281.025C275.054 284.569 278.604 288.115 282.154 291.661C289.111 298.61 296.07 305.556 303.031 312.5C303.034 311.542 303.037 310.583 303.04 309.596C303.069 300.56 303.114 291.525 303.175 282.49C303.206 277.845 303.231 273.2 303.243 268.555C303.255 264.072 303.282 259.589 303.319 255.106C303.331 253.396 303.337 251.686 303.338 249.976C303.339 247.58 303.361 245.185 303.386 242.789C303.382 242.082 303.378 241.376 303.374 240.648C303.474 234.638 305.793 231.402 310.027 227.214C310.625 226.62 311.222 226.025 311.837 225.413C312.475 224.785 313.113 224.158 313.771 223.511C314.764 222.523 314.764 222.523 315.778 221.516C317.89 219.418 320.006 217.326 322.123 215.235C324.237 213.143 326.349 211.049 328.46 208.954C329.77 207.653 331.083 206.353 332.399 205.057C334.951 202.526 337.446 200.028 339.695 197.222C340.229 196.592 340.763 195.962 341.313 195.313C341.828 195.313 342.344 195.313 342.875 195.313C343.078 194.856 343.281 194.399 343.49 193.929C344.505 192.064 345.6 190.833 347.1 189.335C347.643 188.791 348.185 188.246 348.744 187.685C349.329 187.105 349.914 186.526 350.517 185.929C351.118 185.328 351.719 184.727 352.338 184.109C353.608 182.841 354.879 181.576 356.152 180.313C358.106 178.373 360.054 176.427 362.001 174.48C363.234 173.25 364.468 172.021 365.702 170.792C366.287 170.208 366.873 169.623 367.475 169.021C368.018 168.484 368.56 167.947 369.119 167.393C369.596 166.919 370.074 166.444 370.566 165.955C372.474 164.211 373.376 164.06 376.029 163.819C378.813 164.063 378.813 164.063 380.14 165.199C381.665 168.183 381.478 170.945 381.452 174.251C381.456 174.973 381.459 175.695 381.463 176.439C381.472 178.864 381.464 181.288 381.457 183.713C381.46 185.45 381.464 187.186 381.47 188.922C381.479 192.663 381.481 196.404 381.477 200.145C381.472 206.057 381.484 211.968 381.499 217.879C381.519 226.163 381.532 234.447 381.538 242.731C381.539 243.256 381.539 243.782 381.539 244.323C381.543 248.589 381.545 252.855 381.548 257.12C381.55 260.85 381.553 264.58 381.556 268.31C381.556 269.097 381.556 269.097 381.557 269.901C381.564 278.653 381.58 287.404 381.602 296.156C381.617 302.037 381.62 307.917 381.614 313.798C381.613 317.451 381.621 321.103 381.632 324.756C381.635 326.454 381.635 328.153 381.629 329.851C381.623 332.163 381.631 334.475 381.642 336.787C381.637 337.465 381.631 338.143 381.626 338.841C381.552 342.201 381.552 342.201 383.013 345.094C384.806 346.508 386.067 346.386 388.333 346.385C389.172 346.39 390.011 346.395 390.876 346.401C391.796 346.395 392.717 346.389 393.665 346.382C394.635 346.385 395.604 346.388 396.603 346.391C398.712 346.396 400.82 346.397 402.929 346.391C406.265 346.382 409.6 346.392 412.936 346.404C421.222 346.432 429.508 346.437 437.794 346.435C444.231 346.434 450.668 346.439 457.106 346.466C460.421 346.48 463.735 346.478 467.05 346.466C469.598 346.46 472.147 346.475 474.695 346.486C475.613 346.478 476.53 346.471 477.475 346.463C483.602 346.517 483.602 346.517 486.802 348.203C488.469 350.365 488.682 351.437 488.693 354.151C488.712 355.395 488.712 355.395 488.73 356.665C488.723 357.56 488.715 358.454 488.706 359.375C488.71 360.302 488.714 361.23 488.718 362.185C488.72 364.15 488.713 366.115 488.697 368.079C488.676 371.062 488.697 374.042 488.722 377.024C488.719 378.937 488.714 380.851 488.706 382.764C488.714 383.646 488.722 384.527 488.73 385.436C488.618 393.209 486.649 400.015 481.352 405.86C475.417 411.256 468.838 412.617 461.017 412.615C460.41 412.618 459.804 412.621 459.179 412.624C457.149 412.633 455.119 412.636 453.089 412.639C451.632 412.644 450.176 412.649 448.719 412.654C443.937 412.671 439.155 412.679 434.373 412.687C432.725 412.69 431.076 412.693 429.428 412.696C421.682 412.711 413.936 412.722 406.19 412.729C397.26 412.736 388.329 412.757 379.399 412.788C372.489 412.812 365.579 412.824 358.67 412.826C354.546 412.828 350.423 412.835 346.299 412.855C342.417 412.873 338.535 412.876 334.653 412.868C333.233 412.868 331.813 412.873 330.393 412.883C315.261 412.992 307.218 408.866 296.417 398.256C294.483 396.332 292.561 394.396 290.638 392.46C289.57 391.39 288.502 390.32 287.433 389.251C285.146 386.962 282.862 384.671 280.58 382.377C276.973 378.753 273.36 375.134 269.747 371.516C264.038 365.798 258.332 360.077 252.629 354.354C242.397 344.087 232.16 333.825 221.92 323.566C218.326 319.966 214.734 316.363 211.145 312.759C208.919 310.525 206.691 308.292 204.464 306.06C203.428 305.022 202.393 303.983 201.359 302.943C199.952 301.529 198.543 300.117 197.133 298.706C196.72 298.29 196.308 297.874 195.883 297.446C193.798 295.333 193.798 295.333 191.313 293.75C191.031 294.428 191.031 294.428 190.743 295.119C189.554 297.222 188.2 298.403 186.363 299.971C181.376 304.352 176.74 309.036 172.076 313.754C171.112 314.726 170.147 315.698 169.183 316.67C167.121 318.747 165.061 320.825 163.001 322.904C159.744 326.19 156.482 329.471 153.219 332.75C152.391 333.583 152.391 333.583 151.546 334.433C150.417 335.567 149.289 336.701 148.161 337.835C140.574 345.46 132.991 353.089 125.423 360.732C120.302 365.904 115.172 371.067 110.033 376.221C107.317 378.945 104.606 381.673 101.905 384.411C99.3707 386.98 96.8262 389.538 94.273 392.087C93.337 393.026 92.405 393.968 91.4773 394.915C90.2135 396.204 88.9362 397.478 87.6544 398.748C86.5862 399.825 86.5862 399.825 85.4963 400.923C83.5002 402.344 83.5002 402.344 81.2874 402.178C80.7286 401.975 80.1697 401.772 79.5939 401.563C79.5024 389.501 79.4337 377.44 79.3915 365.378C79.3714 359.777 79.3441 354.176 79.2992 348.574C79.2601 343.689 79.2351 338.803 79.2264 333.917C79.2213 331.333 79.2075 328.75 79.1809 326.166C79.1524 323.272 79.1487 320.378 79.1505 317.483C79.1294 316.219 79.1294 316.219 79.1079 314.929C79.2106 299.602 90.0527 290.077 100.198 280.013C101.151 279.061 102.104 278.109 103.056 277.157C105.091 275.125 107.129 273.094 109.168 271.066C112.392 267.859 115.611 264.647 118.829 261.434C123.915 256.357 129.005 251.283 134.096 246.211C143.229 237.113 152.358 228.01 161.483 218.903C164.684 215.708 167.887 212.516 171.092 209.326C173.079 207.347 175.065 205.366 177.051 203.385C177.973 202.465 178.896 201.547 179.819 200.629C181.077 199.378 182.333 198.125 183.588 196.871C184.292 196.17 184.996 195.469 185.721 194.746C187.503 192.968 187.503 192.968 188.969 190.625C189.485 190.625 190 190.625 190.531 190.625C190.789 189.852 191.047 189.078 191.313 188.282C191.828 188.282 192.344 188.282 192.875 188.282C193.038 187.865 193.201 187.448 193.369 187.019C194.863 184.416 196.919 182.457 199.032 180.358C199.508 179.88 199.983 179.401 200.473 178.908C202.07 177.304 203.671 175.705 205.273 174.106C206.418 172.958 207.563 171.809 208.707 170.66C211.819 167.538 214.936 164.421 218.054 161.305C220.657 158.703 223.257 156.098 225.858 153.494C231.995 147.348 238.136 141.207 244.28 135.068C250.615 128.737 256.943 122.4 263.267 116.059C268.698 110.614 274.134 105.174 279.573 99.7369C282.821 96.4903 286.068 93.242 289.309 89.9893C292.36 86.9285 295.417 83.8735 298.478 80.8227C299.599 79.7039 300.717 78.5831 301.834 77.4601C303.362 75.9235 304.898 74.3943 306.435 72.8667C306.872 72.4243 307.309 71.9818 307.759 71.5259C314.892 64.4877 321.546 62.2628 331.448 62.2858Z" fill="#2554DB"/>
<path d="M331.448 62.2858C332.337 62.2818 333.225 62.2778 334.141 62.2737C337.072 62.2629 340.002 62.2636 342.933 62.2654C344.97 62.2624 347.007 62.259 349.044 62.2552C353.31 62.2488 357.575 62.2495 361.841 62.2538C366.772 62.2585 371.703 62.2488 376.634 62.2322C381.382 62.2168 386.13 62.2144 390.878 62.2172C392.897 62.2168 394.917 62.2126 396.936 62.2048C399.753 62.1952 402.57 62.2004 405.386 62.2095C406.225 62.2035 407.064 62.1976 407.929 62.1914C408.694 62.1969 409.46 62.2024 410.248 62.208C410.914 62.2079 411.58 62.2078 412.266 62.2076C414.369 62.5692 415.073 63.1259 416.313 64.8441C416.456 68.4933 415.585 70.55 413.21 73.1931C412.17 74.244 411.117 75.2821 410.054 76.3098C409.481 76.8822 408.908 77.4545 408.318 78.0443C406.424 79.9309 404.514 81.8004 402.604 83.6704C401.282 84.9815 399.962 86.2937 398.642 87.6069C395.165 91.0613 391.675 94.5018 388.181 97.9391C383.946 102.111 379.725 106.297 375.504 110.483C372.218 113.742 368.929 116.997 365.632 120.244C365.024 120.844 364.417 121.444 363.791 122.062C362.663 123.175 361.533 124.287 360.402 125.397C357.498 128.268 354.83 131.21 352.25 134.375C351.266 135.282 350.259 136.165 349.223 137.012C346.381 139.418 344.012 142.037 341.661 144.919C341.288 145.307 340.915 145.695 340.531 146.094C340.016 146.094 339.5 146.094 338.969 146.094C338.761 146.556 338.552 147.018 338.338 147.494C337.387 149.256 336.414 150.408 335.004 151.82C334.508 152.32 334.012 152.821 333.501 153.337C332.682 154.151 332.682 154.151 331.847 154.982C331.268 155.565 330.688 156.147 330.092 156.747C328.144 158.702 326.192 160.652 324.239 162.601C322.844 164 321.449 165.399 320.054 166.798C316.656 170.206 313.254 173.61 309.849 177.013C307.083 179.778 304.317 182.544 301.553 185.312C301.16 185.706 300.767 186.099 300.361 186.505C299.562 187.305 298.764 188.105 297.965 188.905C290.471 196.407 282.972 203.904 275.471 211.4C268.608 218.259 261.751 225.125 254.898 231.993C247.862 239.044 240.821 246.091 233.776 253.134C229.82 257.088 225.866 261.044 221.917 265.004C218.204 268.728 214.484 272.445 210.761 276.158C209.394 277.524 208.029 278.891 206.665 280.261C204.808 282.126 202.943 283.985 201.076 285.842C200.535 286.388 199.995 286.935 199.437 287.498C196.789 290.117 194.817 291.622 191.313 292.969C191.036 294.007 190.779 295.049 190.531 296.094C188.755 297.929 188.755 297.929 186.418 299.964C185.554 300.731 184.691 301.5 183.831 302.271C183.386 302.669 182.941 303.067 182.483 303.477C180.375 305.401 178.358 307.41 176.348 309.434C175.734 310.051 175.734 310.051 175.107 310.681C173.8 312 172.495 313.32 171.19 314.64C170.233 315.605 169.275 316.57 168.318 317.534C166.277 319.591 164.238 321.648 162.199 323.706C158.975 326.959 155.746 330.207 152.516 333.454C151.695 334.279 151.695 334.279 150.857 335.121C149.739 336.245 148.621 337.369 147.503 338.493C139.996 346.039 132.492 353.588 125.003 361.152C119.931 366.275 114.85 371.389 109.759 376.494C107.071 379.191 104.386 381.893 101.712 384.604C99.2052 387.146 96.6876 389.676 94.1613 392.199C93.2353 393.127 92.3134 394.06 91.3958 394.997C90.1458 396.272 88.8823 397.532 87.6142 398.788C86.9099 399.498 86.2055 400.208 85.4798 400.939C83.5002 402.344 83.5002 402.344 81.2899 402.176C80.7302 401.973 80.1706 401.771 79.5939 401.563C79.5024 389.501 79.4337 377.44 79.3915 365.378C79.3714 359.777 79.3441 354.176 79.2992 348.574C79.2601 343.689 79.2351 338.803 79.2264 333.917C79.2213 331.333 79.2075 328.75 79.1809 326.166C79.1524 323.272 79.1487 320.378 79.1505 317.483C79.1294 316.219 79.1294 316.219 79.1079 314.929C79.2106 299.602 90.0527 290.077 100.198 280.013C101.151 279.061 102.104 278.109 103.056 277.157C105.091 275.125 107.129 273.094 109.168 271.066C112.392 267.859 115.611 264.647 118.829 261.434C123.915 256.357 129.005 251.283 134.096 246.211C143.229 237.113 152.358 228.01 161.483 218.903C164.684 215.708 167.887 212.516 171.092 209.326C173.079 207.347 175.065 205.366 177.051 203.385C177.973 202.465 178.896 201.547 179.819 200.629C181.077 199.378 182.333 198.125 183.588 196.871C184.292 196.17 184.996 195.469 185.721 194.746C187.503 192.968 187.503 192.968 188.969 190.625C189.485 190.625 190 190.625 190.531 190.625C190.789 189.852 191.047 189.078 191.313 188.282C191.828 188.282 192.344 188.282 192.875 188.282C193.038 187.865 193.201 187.448 193.369 187.019C194.863 184.416 196.919 182.457 199.032 180.358C199.508 179.88 199.983 179.401 200.473 178.908C202.07 177.304 203.671 175.705 205.273 174.106C206.418 172.958 207.563 171.809 208.707 170.66C211.819 167.538 214.936 164.421 218.054 161.305C220.657 158.703 223.257 156.098 225.858 153.494C231.995 147.348 238.136 141.207 244.28 135.068C250.615 128.737 256.943 122.4 263.267 116.059C268.698 110.614 274.134 105.174 279.573 99.7369C282.821 96.4903 286.068 93.242 289.309 89.9893C292.36 86.9285 295.417 83.8735 298.478 80.8227C299.599 79.7039 300.717 78.5831 301.834 77.4601C303.362 75.9235 304.898 74.3943 306.435 72.8667C306.872 72.4243 307.309 71.9818 307.759 71.5259C314.892 64.4877 321.546 62.2628 331.448 62.2858Z" fill="#6E38C9"/>
<path d="M102.853 62.3489C103.471 62.3425 104.089 62.3361 104.725 62.3295C106.77 62.3101 108.814 62.2972 110.859 62.286C111.558 62.2818 112.256 62.2776 112.976 62.2734C116.674 62.2525 120.373 62.2373 124.071 62.2261C127.13 62.2156 130.189 62.1939 133.248 62.162C136.944 62.1234 140.639 62.1041 144.335 62.0985C145.742 62.0933 147.149 62.0814 148.555 62.0627C150.527 62.038 152.497 62.0379 154.468 62.0437C155.046 62.0309 155.625 62.0181 156.221 62.0049C160.698 62.0586 162.507 63.3391 165.531 66.4058C166.501 68.3454 166.417 69.6459 166.427 71.8163C166.433 72.63 166.438 73.4437 166.444 74.282C166.446 75.1785 166.448 76.075 166.451 76.9987C166.456 77.9401 166.461 78.8815 166.466 79.8515C166.482 82.9797 166.491 86.1078 166.498 89.236C166.502 90.314 166.505 91.392 166.508 92.4699C166.523 97.5377 166.534 102.606 166.541 107.673C166.548 113.515 166.569 119.355 166.6 125.197C166.624 129.716 166.636 134.235 166.638 138.754C166.64 141.45 166.647 144.147 166.667 146.843C166.688 149.858 166.685 152.872 166.679 155.887C166.689 156.772 166.699 157.657 166.71 158.57C166.645 168.457 162.932 173.524 156.156 180.468C155.571 181.077 154.986 181.685 154.383 182.312C152.542 184.21 150.685 186.09 148.822 187.966C148.126 188.669 147.43 189.372 146.713 190.097C144.44 192.395 142.162 194.688 139.884 196.981C139.495 197.373 139.105 197.765 138.704 198.169C135.027 201.87 131.349 205.569 127.667 209.264C122.977 213.972 118.294 218.687 113.622 223.413C110.323 226.75 107.014 230.077 103.699 233.398C101.724 235.377 99.7522 237.361 97.7901 239.354C95.6098 241.568 93.4113 243.764 91.2108 245.958C90.5638 246.621 89.9168 247.283 89.2502 247.966C88.6503 248.558 88.0503 249.151 87.4321 249.761C86.9148 250.282 86.3975 250.802 85.8646 251.339C84.281 252.343 84.281 252.343 82.1798 252.163C80.3748 251.562 80.3748 251.562 79.5935 250.781C79.5101 248.604 79.4781 246.446 79.4786 244.268C79.4757 243.577 79.4728 242.886 79.4699 242.174C79.4612 239.839 79.4582 237.504 79.4553 235.17C79.4504 233.503 79.4452 231.836 79.4397 230.17C79.4261 225.627 79.4179 221.085 79.4114 216.542C79.4074 213.705 79.4027 210.868 79.3977 208.031C79.3828 199.157 79.3717 190.283 79.3652 181.409C79.3576 171.162 79.3371 160.914 79.3055 150.666C79.2819 142.75 79.2703 134.834 79.2677 126.918C79.2659 122.188 79.2589 117.459 79.2393 112.729C79.2211 108.276 79.2178 103.824 79.2258 99.3708C79.2262 97.7385 79.2212 96.1062 79.2105 94.474C79.1967 92.2405 79.2022 90.0078 79.2125 87.7743C79.2039 87.1327 79.1954 86.491 79.1865 85.8299C79.2626 78.9462 82.0509 73.5791 86.6736 68.5878C91.6348 63.9967 96.1606 62.3871 102.853 62.3489Z" fill="#B541D6"/>
<path d="M237.406 248.438C240.564 249.7 242.684 251.937 245.033 254.309C245.48 254.753 245.926 255.198 246.386 255.656C247.883 257.148 249.373 258.646 250.864 260.143C251.936 261.214 253.007 262.284 254.079 263.354C256.992 266.262 259.899 269.176 262.805 272.09C265.848 275.139 268.894 278.184 271.94 281.23C277.057 286.347 282.171 291.468 287.282 296.59C293.189 302.509 299.1 308.424 305.013 314.337C311.31 320.633 317.603 326.932 323.896 333.231C325.708 335.045 327.52 336.858 329.333 338.671C332.185 341.524 335.035 344.379 337.884 347.236C338.929 348.283 339.974 349.329 341.02 350.374C342.45 351.804 343.878 353.237 345.305 354.67C345.717 355.08 346.129 355.491 346.554 355.915C349.137 358.515 351.48 361.235 353.812 364.062C354.505 364.739 355.198 365.416 355.912 366.113C357.515 367.76 358.425 368.991 359.281 371.094C359.797 371.094 360.312 371.094 360.844 371.094C360.844 371.609 360.844 372.125 360.844 372.656C361.299 372.858 361.754 373.059 362.223 373.267C364.11 374.296 365.389 375.43 366.898 376.953C367.378 377.428 367.857 377.904 368.351 378.394C369.438 379.688 369.438 379.688 369.438 381.25C369.953 381.25 370.469 381.25 371 381.25C371 381.766 371 382.281 371 382.812C371.435 382.974 371.87 383.135 372.318 383.301C374.345 384.506 375.516 385.981 376.96 387.82C378.084 389.124 379.272 390.143 380.619 391.211C381.658 392.081 381.658 392.081 382.719 392.969C382.719 393.484 382.719 394 382.719 394.531C383.202 394.725 383.686 394.918 384.184 395.117C386.159 396.279 386.405 397.216 387.406 399.219C388.995 400.209 388.995 400.209 390.531 400.781C390.531 401.297 390.531 401.812 390.531 402.344C391.047 402.344 391.562 402.344 392.094 402.344C392.094 402.859 392.094 403.375 392.094 403.906C392.593 404.116 393.093 404.325 393.607 404.541C395.219 405.469 395.219 405.469 396 407.812C396.725 408.175 396.725 408.175 397.465 408.545C399.45 409.537 400.203 410.71 401.469 412.5C390.718 412.573 379.967 412.628 369.216 412.662C364.224 412.678 359.231 412.7 354.238 412.736C349.416 412.77 344.594 412.788 339.771 412.796C337.936 412.802 336.1 412.813 334.265 412.83C331.684 412.853 329.105 412.856 326.524 412.855C325.773 412.866 325.023 412.877 324.249 412.889C309.25 412.799 300.472 402.363 290.65 392.447C289.584 391.376 288.516 390.305 287.449 389.235C285.165 386.943 282.883 384.649 280.603 382.353C277 378.725 273.39 375.103 269.78 371.482C260.82 362.497 251.869 353.504 242.92 344.507C235.949 337.498 228.975 330.491 221.993 323.492C218.401 319.891 214.813 316.284 211.23 312.673C209.008 310.435 206.78 308.203 204.552 305.971C203.516 304.933 202.483 303.892 201.452 302.85C200.049 301.432 198.639 300.021 197.227 298.612C196.817 298.194 196.406 297.775 195.983 297.344C193.707 294.968 193.707 294.968 190.531 294.531C191.068 293.066 191.068 293.066 192.094 291.406C192.672 291.196 193.25 290.986 193.846 290.77C196.519 289.621 198.244 287.911 200.244 285.865C200.649 285.461 201.053 285.057 201.47 284.641C202.799 283.311 204.119 281.972 205.439 280.634C206.361 279.707 207.284 278.781 208.207 277.855C210.631 275.423 213.047 272.983 215.463 270.542C217.93 268.05 220.405 265.565 222.878 263.08C227.728 258.206 232.569 253.324 237.406 248.438Z" fill="#1F22B2"/>
<path d="M330.051 62.3226C330.791 62.3224 331.531 62.3221 332.293 62.3219C334.728 62.323 337.163 62.3351 339.597 62.3474C341.29 62.3503 342.982 62.3525 344.674 62.3541C349.121 62.36 353.567 62.3754 358.014 62.3927C362.554 62.4087 367.094 62.4158 371.635 62.4237C380.538 62.4404 389.441 62.4671 398.344 62.5C398.086 63.0156 397.828 63.5312 397.562 64.0625C396.23 64.0573 396.23 64.0573 394.871 64.052C386.491 64.0203 378.111 63.9968 369.732 63.9815C365.424 63.9734 361.116 63.9623 356.808 63.9446C352.65 63.9276 348.491 63.9183 344.332 63.9142C342.747 63.9113 341.162 63.9057 339.577 63.8973C337.353 63.8859 335.13 63.8844 332.906 63.8851C332.254 63.8795 331.601 63.8739 330.929 63.8681C320.935 63.9031 314.151 68.4834 306.938 75C305.163 76.8806 303.468 78.8119 301.777 80.7678C298.955 83.8522 295.847 86.577 292.716 89.3432C290.453 91.4797 288.582 93.6789 286.625 96.0937C285.34 97.413 284.036 98.7133 282.719 100C282.197 100.539 281.675 101.078 281.138 101.633C280.58 102.206 280.022 102.779 279.447 103.369C278.921 103.914 278.394 104.459 277.851 105.02C276.469 106.25 276.469 106.25 274.906 106.25C274.615 106.923 274.615 106.923 274.318 107.61C273.197 109.64 271.904 110.992 270.252 112.619C269.641 113.226 269.029 113.833 268.398 114.458C267.438 115.398 267.438 115.398 266.459 116.357C265.828 116.981 265.197 117.605 264.547 118.248C263.363 119.418 262.178 120.586 260.991 121.753C259.109 123.607 257.242 125.475 255.375 127.344C254.061 128.649 252.747 129.954 251.432 131.259C250.326 132.36 249.22 133.461 248.114 134.562C247.351 135.321 246.587 136.079 245.823 136.837C244.712 137.938 243.604 139.042 242.497 140.146C241.838 140.8 241.18 141.454 240.501 142.129C238.935 143.629 238.935 143.629 238.188 145.312C237.672 145.312 237.156 145.312 236.625 145.312C236.109 146.344 235.594 147.375 235.062 148.437C234.547 148.437 234.031 148.437 233.5 148.437C233.5 148.953 233.5 149.469 233.5 150C232.441 151.041 232.441 151.041 231.01 152.197C227.934 154.752 225.069 157.335 222.66 160.547C220.543 163.038 218.241 164.582 215.531 166.406C215.016 166.148 214.5 165.891 213.969 165.625C226.586 152.952 239.211 140.287 251.843 127.629C257.709 121.751 263.572 115.872 269.43 109.987C274.537 104.856 279.648 99.7302 284.764 94.609C287.472 91.8981 290.178 89.1852 292.879 86.4673C295.423 83.9068 297.973 81.352 300.527 78.8013C301.462 77.8665 302.394 76.9296 303.324 75.9906C311.535 67.7036 317.951 62.2243 330.051 62.3226Z" fill="#9639C4"/>
<path d="M378.812 164.063C380.922 166.216 381.449 167.763 381.438 170.737C381.441 171.445 381.445 172.153 381.448 172.882C381.439 173.652 381.431 174.423 381.422 175.216C381.423 176.44 381.423 176.44 381.423 177.688C381.422 180.386 381.403 183.082 381.385 185.779C381.381 187.649 381.377 189.519 381.375 191.388C381.366 196.31 381.343 201.232 381.317 206.153C381.293 211.175 381.283 216.197 381.271 221.219C381.246 231.074 381.206 240.928 381.156 250.782C380.898 250.782 380.641 250.782 380.375 250.782C380.117 222.938 379.859 195.094 379.594 166.407C379.078 166.407 378.563 166.407 378.031 166.407C378.031 165.891 378.031 165.375 378.031 164.844C373.271 165.902 370.798 168.518 367.495 171.876C366.929 172.439 366.363 173.002 365.78 173.582C363.914 175.442 362.06 177.313 360.206 179.184C358.909 180.483 357.611 181.782 356.313 183.079C353.594 185.801 350.88 188.527 348.171 191.258C344.704 194.751 341.227 198.234 337.747 201.713C335.066 204.394 332.39 207.08 329.714 209.766C328.434 211.051 327.153 212.335 325.871 213.619C324.076 215.417 322.286 217.221 320.498 219.026C319.971 219.551 319.445 220.077 318.902 220.619C316.583 222.97 314.463 225.295 312.569 228.005C310.844 230.469 310.844 230.469 308.744 232.129C306.71 233.779 306.131 235.028 305.375 237.5C304.859 237.243 304.344 236.985 303.812 236.719C304.777 233.235 305.858 231.163 308.431 228.634C309.059 228.008 309.688 227.382 310.336 226.737C311.016 226.075 311.696 225.414 312.397 224.732C313.097 224.039 313.796 223.345 314.517 222.631C316.373 220.793 318.236 218.962 320.103 217.135C322.725 214.564 325.336 211.983 327.946 209.401C329.335 208.029 330.726 206.661 332.12 205.295C334.776 202.681 337.387 200.111 339.72 197.2C340.246 196.578 340.771 195.955 341.312 195.313C341.828 195.313 342.344 195.313 342.875 195.313C343.078 194.856 343.281 194.399 343.49 193.929C344.505 192.064 345.599 190.833 347.1 189.336C347.642 188.791 348.185 188.246 348.743 187.685C349.329 187.105 349.914 186.526 350.517 185.929C351.118 185.328 351.719 184.728 352.338 184.109C353.607 182.841 354.879 181.576 356.152 180.313C358.106 178.373 360.054 176.427 362 174.48C363.234 173.25 364.468 172.021 365.702 170.792C366.287 170.208 366.872 169.624 367.475 169.022C368.289 168.216 368.289 168.216 369.119 167.393C369.596 166.919 370.074 166.444 370.566 165.955C373.133 163.609 375.432 163.766 378.812 164.063Z" fill="#6249D5"/>
<path d="M79.5938 314.062C79.8516 314.062 80.1094 314.062 80.375 314.062C81.1543 318.583 81.2625 322.957 81.2449 327.539C81.2451 328.325 81.2452 329.11 81.2453 329.92C81.2447 332.502 81.2387 335.085 81.2325 337.668C81.2311 339.464 81.23 341.26 81.2292 343.057C81.2262 347.774 81.2185 352.492 81.2099 357.209C81.2019 362.027 81.1983 366.845 81.1944 371.663C81.186 381.109 81.1727 390.554 81.1562 400C84.0497 399.395 85.0564 398.614 86.918 396.289C89.2169 393.53 91.6753 391.364 94.4375 389.062C95.3315 388.067 96.2095 387.056 97.0742 386.035C99.4242 383.274 101.956 380.93 104.713 378.583C107.393 376.282 109.741 373.833 111.967 371.094C113.465 369.34 114.749 368.029 116.508 366.602C118.675 365.073 118.675 365.073 119.438 363.281C119.953 363.281 120.469 363.281 121 363.281C121 362.766 121 362.25 121 361.719C121.516 361.719 122.031 361.719 122.562 361.719C122.562 361.203 122.562 360.688 122.562 360.156C123.792 358.972 123.792 358.972 125.443 357.617C128.218 355.266 130.484 352.863 132.719 350C133.879 350.387 133.879 350.387 135.062 350.781C128.421 357.531 121.767 364.269 115.096 370.99C111.999 374.112 108.907 377.237 105.825 380.373C102.851 383.397 99.8666 386.41 96.8737 389.415C95.7324 390.565 94.5952 391.719 93.4622 392.877C91.8777 394.496 90.2793 396.099 88.6767 397.699C88.2086 398.184 87.7405 398.669 87.2582 399.169C85.9273 400.48 85.9273 400.48 83.5 402.344C82.2109 402.086 80.9219 401.828 79.5938 401.562C79.5938 372.688 79.5938 343.813 79.5938 314.062Z" fill="#3229B2"/>
<path d="M330.051 62.3228C330.791 62.3225 331.531 62.3223 332.293 62.3221C334.728 62.3231 337.163 62.3353 339.597 62.3475C341.29 62.3505 342.982 62.3527 344.674 62.3542C349.121 62.3602 353.567 62.3755 358.014 62.3928C362.554 62.4089 367.094 62.416 371.635 62.4238C380.538 62.4406 389.441 62.4672 398.344 62.5001C398.086 63.0158 397.828 63.5314 397.562 64.0626C396.23 64.0574 396.23 64.0574 394.871 64.0521C386.491 64.0204 378.111 63.997 369.732 63.9817C365.424 63.9735 361.116 63.9625 356.808 63.9448C352.65 63.9278 348.491 63.9184 344.332 63.9144C342.747 63.9115 341.162 63.9059 339.577 63.8974C337.353 63.8861 335.13 63.8845 332.906 63.8853C332.254 63.8796 331.601 63.874 330.929 63.8682C320.935 63.9033 314.151 68.4836 306.938 75.0001C305.163 76.8807 303.468 78.812 301.777 80.768C298.955 83.8524 295.847 86.5772 292.716 89.3434C290.457 91.4768 288.592 93.6936 286.625 96.0939C284.818 97.5587 284.818 97.5587 283.5 98.4376C282.984 98.1798 282.469 97.922 281.938 97.6564C286.043 93.4916 290.157 89.3362 294.278 85.1871C295.677 83.776 297.075 82.3628 298.47 80.9474C300.481 78.9075 302.5 76.8753 304.521 74.8445C305.138 74.2153 305.755 73.5861 306.391 72.9378C313.59 65.7363 319.761 62.2392 330.051 62.3228Z" fill="#972EC6"/>
<path d="M102.891 62.3736C103.512 62.3697 104.134 62.3659 104.774 62.3619C106.83 62.3505 108.885 62.3451 110.941 62.3408C112.369 62.3363 113.796 62.3318 115.223 62.3273C118.215 62.3191 121.207 62.3145 124.2 62.3118C128.038 62.3075 131.876 62.2887 135.714 62.2665C138.662 62.252 141.609 62.2479 144.557 62.2467C145.972 62.2443 147.388 62.2381 148.803 62.2278C150.78 62.2145 152.757 62.216 154.734 62.221C155.614 62.2102 155.614 62.2102 156.513 62.1992C160.493 62.2314 160.493 62.2314 162.397 63.6888C162.788 64.2602 162.788 64.2602 163.187 64.8433C162.672 65.1011 162.156 65.3589 161.625 65.6245C161.625 65.1089 161.625 64.5933 161.625 64.062C153.713 64.0075 145.801 63.966 137.888 63.9406C134.214 63.9284 130.539 63.9119 126.865 63.8852C123.314 63.8596 119.763 63.8457 116.212 63.8396C114.862 63.8353 113.512 63.8269 112.162 63.8142C98.5287 63.6366 98.5287 63.6366 87.1619 70.4127C80.297 78.0245 80.9192 88.5186 80.8326 98.2295C80.8179 99.3021 80.8026 100.375 80.7867 101.447C80.7471 104.237 80.7159 107.026 80.6866 109.816C80.6551 112.676 80.6153 115.536 80.5762 118.395C80.5011 123.982 80.435 129.569 80.3748 135.156C80.117 135.156 79.8592 135.156 79.5936 135.156C79.5209 128.147 79.4655 121.138 79.4316 114.129C79.4154 110.874 79.3934 107.619 79.3578 104.364C79.3237 101.218 79.3051 98.0725 79.2971 94.9266C79.2913 93.7309 79.2801 92.5352 79.2632 91.3396C79.1367 82.0514 80.2411 75.5333 86.6736 68.5878C91.6521 63.9807 96.1747 62.3836 102.891 62.3736Z" fill="#D933AE"/>
<path d="M475.688 407.812C476.461 408.199 476.461 408.199 477.25 408.594C476.293 409.104 475.332 409.607 474.369 410.107C473.834 410.388 473.3 410.669 472.749 410.959C468.816 412.668 464.849 412.608 460.626 412.589C459.985 412.589 459.345 412.589 458.685 412.589C456.575 412.588 454.466 412.582 452.357 412.576C450.891 412.575 449.425 412.574 447.96 412.573C444.108 412.57 440.256 412.562 436.404 412.554C432.471 412.546 428.539 412.542 424.606 412.538C416.893 412.53 409.181 412.516 401.469 412.5C401.211 411.984 400.953 411.469 400.688 410.938C401.249 410.939 401.811 410.941 402.39 410.943C407.787 410.959 413.184 410.97 418.581 410.978C421.354 410.982 424.126 410.987 426.898 410.996C438.095 411.032 449.29 411.022 460.484 410.69C461.302 410.673 462.12 410.656 462.963 410.638C467.731 410.466 471.282 409.615 475.688 407.812Z" fill="#0D5ECC"/>
<path d="M384.281 346.875C397.279 346.82 410.277 346.779 423.275 346.753C429.31 346.741 435.345 346.725 441.38 346.698C446.639 346.674 451.898 346.659 457.157 346.654C459.943 346.651 462.728 346.644 465.514 346.627C468.621 346.608 471.728 346.607 474.835 346.609C475.762 346.6 476.689 346.592 477.644 346.583C478.488 346.586 479.333 346.589 480.203 346.593C480.938 346.591 481.674 346.588 482.431 346.586C484.599 346.924 485.282 347.528 486.625 349.218C485.852 349.218 485.078 349.218 484.281 349.218C483.895 348.832 483.895 348.832 483.5 348.437C482.378 348.364 481.252 348.345 480.128 348.348C479.4 348.348 478.672 348.349 477.922 348.349C477.116 348.353 476.311 348.357 475.481 348.361C474.637 348.362 473.794 348.363 472.925 348.364C471.084 348.367 469.243 348.372 467.402 348.378C464.482 348.388 461.561 348.393 458.641 348.397C451.9 348.407 445.159 348.424 438.419 348.441C431.776 348.458 425.132 348.472 418.489 348.481C415.625 348.486 412.762 348.496 409.898 348.506C401.324 348.524 392.821 348.517 384.281 347.656C384.281 347.398 384.281 347.14 384.281 346.875Z" fill="#0453C9"/>
<path d="M398.344 62.5005C400.899 62.4324 403.454 62.3908 406.01 62.354C406.735 62.3343 407.461 62.3147 408.209 62.2945C408.906 62.2869 409.603 62.2794 410.322 62.2716C411.285 62.2532 411.285 62.2532 412.268 62.2344C413.969 62.5005 413.969 62.5005 415.417 63.3448C416.525 65.1999 416.67 66.5633 416.251 68.6799C414.527 72.5923 411.011 75.4274 407.99 78.3665C407.224 79.1285 406.458 79.8914 405.693 80.6552C404.093 82.2481 402.485 83.8331 400.872 85.4121C398.8 87.4391 396.743 89.4796 394.69 91.5255C393.111 93.0979 391.528 94.6658 389.943 96.2321C389.182 96.9837 388.423 97.736 387.664 98.489C386.605 99.5365 385.541 100.578 384.477 101.619C383.872 102.213 383.267 102.808 382.644 103.42C381.156 104.688 381.156 104.688 379.594 104.688C379.594 104.172 379.594 103.657 379.594 103.125C380.731 102.169 381.872 101.216 383.036 100.293C384.465 99.1269 384.465 99.1269 386.039 97.0219C386.49 96.458 386.941 95.894 387.406 95.313C387.922 95.313 388.438 95.313 388.969 95.313C388.969 94.7973 388.969 94.2817 388.969 93.7505C390.028 92.7098 390.028 92.7098 391.459 91.5532C393.892 89.5359 396.136 87.4228 398.344 85.1567C398.988 84.5283 399.633 83.8999 400.297 83.2524C404.292 79.6203 404.292 79.6203 406.156 75.0005C406.72 74.8232 407.284 74.646 407.865 74.4633C410.571 73.2006 412.079 71.8415 413.969 69.5317C414.656 67.0461 414.656 67.0461 414.75 64.8442C414.234 64.8442 413.719 64.8442 413.188 64.8442C413.188 64.3286 413.188 63.813 413.188 63.2817C412.64 63.3472 412.092 63.4126 411.527 63.4801C406.938 63.9727 402.895 64.0546 398.344 63.2817C398.344 63.0239 398.344 62.7661 398.344 62.5005Z" fill="#7D31D3"/>
<path d="M243.656 135.938C244.043 137.098 244.043 137.098 244.438 138.281C244.052 138.658 243.666 139.035 243.269 139.423C242.518 140.163 242.518 140.163 241.752 140.918C241.004 141.652 241.004 141.652 240.241 142.401C238.907 143.685 238.907 143.685 238.188 145.312C237.672 145.312 237.156 145.312 236.625 145.312C236.109 146.344 235.594 147.375 235.062 148.438C234.547 148.438 234.031 148.438 233.5 148.438C233.5 148.953 233.5 149.469 233.5 150C232.441 151.041 232.441 151.041 231.01 152.197C227.934 154.752 225.069 157.335 222.66 160.547C220.543 163.038 218.241 164.583 215.531 166.406C215.016 166.148 214.5 165.891 213.969 165.625C223.766 155.828 233.562 146.031 243.656 135.938Z" fill="#8F42C6"/>
<path d="M338.188 199.219C338.188 201.562 338.188 201.562 337.324 202.697C336.717 203.289 336.717 203.289 336.098 203.893C335.641 204.345 335.185 204.796 334.714 205.261C334.214 205.745 333.713 206.228 333.198 206.726C332.687 207.23 332.176 207.734 331.65 208.253C330.009 209.87 328.362 211.478 326.713 213.086C325.078 214.683 323.446 216.282 321.818 217.885C320.805 218.883 319.788 219.877 318.766 220.867C316.477 223.118 314.425 225.344 312.584 227.979C310.844 230.469 310.844 230.469 308.744 232.129C306.71 233.778 306.131 235.027 305.375 237.5C304.859 237.242 304.344 236.984 303.812 236.719C304.79 233.153 305.941 231.079 308.564 228.487C309.221 227.83 309.878 227.174 310.555 226.497C311.264 225.804 311.974 225.11 312.705 224.396C313.431 223.674 314.158 222.952 314.906 222.209C316.828 220.298 318.759 218.398 320.693 216.499C322.668 214.556 324.633 212.605 326.6 210.654C330.454 206.833 334.318 203.023 338.188 199.219Z" fill="#513CD5"/>
<path d="M237.406 248.438C240.731 250.1 242.889 252.159 245.451 254.767C245.914 255.233 246.378 255.699 246.856 256.179C248.332 257.664 249.803 259.154 251.273 260.645C252.275 261.654 253.277 262.663 254.279 263.672C256.732 266.142 259.18 268.616 261.625 271.094C261.109 271.609 260.594 272.125 260.062 272.656C259.769 272.307 259.476 271.957 259.174 271.597C256.042 267.897 252.86 264.44 249.125 261.328C242.838 256.089 242.838 256.089 241.312 252.344C240.797 252.344 240.281 252.344 239.75 252.344C239.75 251.828 239.75 251.313 239.75 250.781C236.784 251.205 235.475 252.501 233.5 254.688C232.984 254.43 232.469 254.172 231.938 253.906C233.742 252.102 235.547 250.297 237.406 248.438Z" fill="#1F1D71"/>
<path d="M192.875 292.969C194.422 293.742 194.422 293.742 196 294.531C196 295.047 196 295.562 196 296.094C197.031 296.609 198.062 297.125 199.125 297.656C199.125 298.172 199.125 298.687 199.125 299.219C199.641 299.219 200.156 299.219 200.688 299.219C200.688 299.734 200.688 300.25 200.688 300.781C201.123 300.958 201.558 301.136 202.006 301.318C205.128 303.091 207.359 305.171 208.5 308.594C209.016 308.594 209.531 308.594 210.062 308.594C210.062 309.109 210.062 309.625 210.062 310.156C210.578 310.156 211.094 310.156 211.625 310.156C212.803 311.353 212.803 311.353 214.066 312.891C214.698 313.652 214.698 313.652 215.342 314.429C215.662 314.823 215.983 315.218 216.312 315.625C216.055 316.141 215.797 316.656 215.531 317.188C212.3 313.994 209.073 310.796 205.851 307.594C204.754 306.504 203.655 305.416 202.555 304.329C200.977 302.77 199.403 301.205 197.831 299.64C197.335 299.152 196.84 298.665 196.329 298.163C195.148 296.981 194.007 295.76 192.875 294.531C192.875 294.016 192.875 293.5 192.875 292.969Z" fill="#211D80"/>
<path d="M101.469 232.031C101.984 232.031 102.5 232.031 103.031 232.031C101.209 236.397 97.4997 239.476 94.2222 242.778C93.0225 243.993 91.8404 245.224 90.6579 246.455C89.8955 247.228 89.1321 248 88.3676 248.77C87.6779 249.474 86.9882 250.179 86.2777 250.904C84.2812 252.344 84.2812 252.344 82.0727 252.176C81.5125 251.974 80.9522 251.771 80.375 251.562C80.6328 250.789 80.8906 250.016 81.1562 249.219C81.7393 249.284 82.3224 249.35 82.9232 249.417C85.1317 249.424 85.1317 249.424 86.5914 247.873C87.0698 247.27 87.5482 246.666 88.041 246.045C90.5445 243.031 93.1451 240.517 96.1373 238C97.5172 236.76 98.6539 235.483 99.8086 234.033C100.356 233.373 100.904 232.712 101.469 232.031Z" fill="#7F45EC"/>
<path d="M398.344 62.5005C400.899 62.4324 403.454 62.3908 406.01 62.354C406.735 62.3343 407.461 62.3147 408.209 62.2945C409.255 62.2831 409.255 62.2831 410.322 62.2716C411.285 62.2532 411.285 62.2532 412.268 62.2344C413.969 62.5005 413.969 62.5005 415.367 63.5247C416.312 64.8442 416.312 64.8442 416.334 67.4351C415.387 70.8285 413.805 72.6353 411.283 74.9516C410.89 75.3368 410.497 75.722 410.091 76.1189C407.18 78.9067 407.18 78.9067 405.375 78.9067C405.521 77.0512 405.521 77.0512 406.156 75.0005C407.438 74.4309 408.745 73.9172 410.062 73.438C412.624 71.342 413.808 70.1865 414.604 66.9438C414.652 66.2509 414.7 65.5581 414.75 64.8442C414.234 64.8442 413.719 64.8442 413.188 64.8442C413.188 64.3286 413.188 63.813 413.188 63.2817C412.64 63.3472 412.092 63.4126 411.527 63.4801C406.938 63.9727 402.895 64.0546 398.344 63.2817C398.344 63.0239 398.344 62.7661 398.344 62.5005Z" fill="#852CE5"/>
<path d="M157.719 325.781C158.234 326.039 158.75 326.297 159.281 326.562C151.547 334.297 143.812 342.031 135.844 350C135.844 347.656 135.844 347.656 136.625 346.094C137.141 346.094 137.656 346.094 138.188 346.094C138.188 345.578 138.188 345.063 138.188 344.531C139.246 343.491 139.246 343.491 140.678 342.334C143.111 340.317 145.354 338.204 147.562 335.938C150.948 332.552 154.333 329.167 157.719 325.781Z" fill="#3628B6"/>
<path d="M260.844 271.875C263.862 273.113 265.757 275.047 268.034 277.35C268.411 277.729 268.788 278.108 269.176 278.499C270.374 279.705 271.566 280.917 272.758 282.129C273.571 282.95 274.385 283.771 275.199 284.592C277.189 286.599 279.174 288.611 281.156 290.625C278.812 290.625 278.812 290.625 276.841 288.855C276.093 288.084 275.35 287.306 274.613 286.523C271.986 283.773 269.323 281.241 266.312 278.906C263.957 276.715 262.067 274.877 260.844 271.875Z" fill="#1F2091"/>
<path d="M475.688 407.812C476.203 408.07 476.719 408.328 477.25 408.594C471.49 412.288 466.379 412.091 459.672 411.914C458.657 411.9 457.642 411.886 456.596 411.871C454.105 411.835 451.615 411.783 449.125 411.719C449.125 411.461 449.125 411.203 449.125 410.938C449.708 410.926 450.29 410.915 450.89 410.903C453.558 410.844 456.224 410.769 458.891 410.693C459.807 410.676 460.724 410.658 461.668 410.64C466.906 410.478 470.876 409.857 475.688 407.812Z" fill="#0052CA"/>
<path d="M311.625 225.781C312.398 226.039 313.172 226.297 313.969 226.562C312.37 228.694 310.921 230.41 308.793 232.031C306.758 233.745 306.142 234.988 305.375 237.5C304.859 237.242 304.344 236.984 303.812 236.719C304.811 231.724 308.018 229.087 311.625 225.781Z" fill="#5747DA"/>
<path d="M325.688 63.2813C325.688 63.5391 325.688 63.7969 325.688 64.0625C324.479 64.3767 324.479 64.3767 323.246 64.6973C319.015 65.9086 315.355 68.009 311.625 70.3125C311.625 69.5391 311.625 68.7657 311.625 67.9688C315.303 64.8225 320.842 61.4176 325.688 63.2813Z" fill="#AA44C5"/>
<path d="M237.406 248.438C240.229 249.849 241.186 250.519 243.07 252.832C243.477 253.326 243.884 253.819 244.303 254.327C244.756 254.892 244.756 254.892 245.219 255.469C244.445 255.469 243.672 255.469 242.875 255.469C242.359 254.437 241.844 253.406 241.312 252.344C240.797 252.344 240.281 252.344 239.75 252.344C239.75 251.828 239.75 251.313 239.75 250.781C236.784 251.205 235.475 252.501 233.5 254.688C232.984 254.43 232.469 254.172 231.938 253.906C233.742 252.102 235.547 250.297 237.406 248.438Z" fill="#18125B"/>
<path d="M109.281 224.219C109.797 224.219 110.312 224.219 110.844 224.219C109.679 227.184 107.909 228.602 105.375 230.469C105.375 229.437 105.375 228.406 105.375 227.344C106.664 226.828 107.953 226.313 109.281 225.781C109.281 225.266 109.281 224.75 109.281 224.219Z" fill="#8446EE"/>
<path d="M81.1563 75.7812C81.4141 75.7812 81.6719 75.7812 81.9375 75.7812C82.0491 81.5848 82.0491 81.5848 81.1563 84.375C80.6406 84.375 80.125 84.375 79.5938 84.375C80.2773 78.418 80.2773 78.418 81.1563 75.7812Z" fill="#E151B4"/>
<path d="M197.562 182.031C197.82 182.805 198.078 183.578 198.344 184.375C197.221 186.084 197.221 186.084 196 187.5C194.969 187.242 193.938 186.984 192.875 186.719C194.422 185.172 195.969 183.625 197.562 182.031Z" fill="#8951C9"/>
<path d="M477.25 408.593C476.243 409.118 475.233 409.638 474.223 410.156C473.661 410.446 473.099 410.736 472.52 411.035C471 411.718 471 411.718 469.438 411.718C469.438 411.203 469.438 410.687 469.438 410.156C470.444 409.742 471.453 409.337 472.465 408.935C473.027 408.709 473.589 408.482 474.168 408.249C475.688 407.812 475.688 407.812 477.25 408.593Z" fill="#115BC5"/>
</g>
<defs>
<clipPath id="clip0_3365_136">
<rect width="2349" height="500" fill="white"/>
</clipPath>
</defs>
</svg>
