<?xml version="1.0" encoding="UTF-8" standalone="no"?><!DOCTYPE svg PUBLIC "-//W3C//DTD SVG 1.1//EN" "http://www.w3.org/Graphics/SVG/1.1/DTD/svg11.dtd"><svg width="100%" height="100%" viewBox="0 0 1963 371" version="1.1" xmlns="http://www.w3.org/2000/svg" xmlns:xlink="http://www.w3.org/1999/xlink" xml:space="preserve" xmlns:serif="http://www.serif.com/" style="fill-rule:evenodd;clip-rule:evenodd;stroke-linejoin:round;stroke-miterlimit:2;"><path d="M307.192,360.932c57.5,-89.167 71.666,-213.333 57.5,-243.75c-5.417,-11.667 -11.667,-20 -17.084,-25.833c-2.5,-2.5 -2.916,-6.667 -0.833,-9.584c19.167,-30.416 19.167,-50.416 13.75,-62.916c-0.833,-2.084 -2.083,-4.167 -3.75,-5.834c-1.667,-1.666 -3.75,-2.916 -5.833,-3.75c-12.5,-5.416 -32.5,-5.416 -62.917,13.75c-2.917,2.084 -7.083,1.667 -9.583,-0.833c-5.834,-5.417 -14.167,-11.667 -25.834,-17.083c-30.833,-14.167 -154.583,-0 -243.75,57.5c-2.5,1.666 -3.333,4.166 -2.5,7.083c0.834,2.5 3.334,4.167 6.25,4.167c1.25,-0 111.667,-5.834 195.834,12.916c6.666,1.667 9.583,9.167 5.416,14.584c-8.75,12.083 -16.666,24.166 -23.75,36.25c0,0.416 0,0.833 0.417,0.416c17.917,-8.75 30,-7.916 38.333,-4.583c1.667,0.833 3.334,1.667 4.584,3.333c1.25,1.25 2.5,2.917 3.333,4.584c3.333,8.333 4.167,20.416 -4.583,38.333c-0,0.417 -0,0.833 0.416,0.417c12.084,-7.5 24.167,-15 36.25,-23.75c5.417,-4.167 13.334,-1.25 14.584,5.416c18.75,84.167 12.916,194.584 12.916,195.834c0,2.916 1.667,5.416 4.167,6.25c2.083,0.416 5,-0.834 6.667,-2.917Z" style="fill:#ed2207;fill-rule:nonzero;"/><path d="M180.942,368.015c34.583,-53.75 43.333,-128.333 34.583,-146.666c-3.333,-7.084 -6.667,-12.084 -10,-15.417c-1.667,-1.667 -1.667,-4.167 -0.417,-5.833c11.667,-17.917 11.667,-30 8.334,-37.5c-0.417,-1.25 -1.25,-2.5 -2.5,-3.75c-1.25,-1.25 -2.084,-2.084 -3.75,-2.5c-7.5,-2.917 -19.584,-2.917 -37.5,8.333c-2.084,1.25 -4.167,0.833 -5.834,-0.417c-3.75,-3.333 -8.75,-7.083 -15.416,-10c-18.334,-8.75 -92.917,0 -146.667,34.584c-1.25,0.833 -2.083,2.5 -1.667,4.166c0.417,1.667 2.084,2.5 3.75,2.5c0.834,0 67.084,-3.75 117.5,7.917c4.167,0.833 5.834,5.417 3.334,8.75c-10,13.75 -17.917,27.5 -25.834,42.5c-0.833,1.667 -2.083,2.917 -3.75,4.167l-40,24.583c-1.666,0.833 -2.083,2.917 -1.666,4.583c0.833,1.667 2.5,2.5 4.166,2.084l37.917,-17.5c0.417,-0.417 1.25,-0 1.667,0.416c0.416,0.417 0.416,0.834 0.416,1.667l-17.5,37.917c-0.416,1.666 0.417,3.75 2.084,4.166c1.666,0.834 3.75,0 4.583,-1.666l24.583,-40c0.834,-1.667 2.5,-2.917 4.167,-3.75c15,-7.917 28.333,-15.834 42.5,-25.834c3.333,-2.5 7.917,-0.833 8.75,3.334c11.25,50.416 7.917,117.083 7.917,117.5c-0,1.666 0.833,3.333 2.5,3.75c0.833,-0 2.916,-0.834 3.75,-2.084Z" style="fill:#fff;fill-rule:nonzero;"/><path d="M644.275,175.099c-10.833,-3.334 -57.5,-15.417 -60.833,-16.25c-15,-4.167 -25,-12.5 -25,-27.084c-0,-21.25 21.666,-27.5 38.75,-27.5c25.416,0 43.75,10 45.416,37.084l36.667,-0c0,-43.75 -36.667,-67.084 -80.833,-67.084c-37.917,0 -77.084,19.584 -77.084,62.084c0,21.666 10.417,43.75 46.667,53.333c28.75,7.917 47.917,11.667 62.917,17.5c8.75,3.333 17.5,9.583 17.5,25.833c-0,15.834 -12.084,31.667 -44.584,31.667c-29.583,0 -53.333,-12.5 -53.333,-45l-36.667,0c0.834,52.083 40,75 87.917,75c41.667,0 83.75,-18.75 83.75,-65.833c-0.417,-21.667 -13.75,-45.417 -41.25,-53.75Z" style="fill:#fff;fill-rule:nonzero;"/><path d="M849.275,251.349l-0.417,-0l-27.5,-113.75l-33.75,-0l-28.75,113.75l-0.416,-0l-30,-113.75l-35.417,-0l47.083,152.5l35.417,-0l27.917,-113.334l0.416,0l28.334,113.334l34.583,-0l47.917,-152.5l-34.167,-0l-31.25,113.75Z" style="fill:#fff;fill-rule:nonzero;"/><rect x="930.942" y="79.265" width="33.75" height="31.667" style="fill:#fff;fill-rule:nonzero;"/><rect x="930.942" y="137.599" width="33.75" height="152.5" style="fill:#fff;fill-rule:nonzero;"/><path d="M1220.53,79.265l-36.667,0l0,210.834l143.75,-0l0,-32.084l-107.083,0l0,-178.75Z" style="fill:#fff;fill-rule:nonzero;"/><path d="M1408.44,133.432c-45.417,0 -73.75,37.083 -73.75,80.417c-0,47.083 26.666,80 74.583,80c33.333,-0 61.667,-18.75 69.167,-52.084l-31.667,0c-5.833,16.667 -17.5,25.417 -37.083,25.417c-27.917,0 -40.834,-21.25 -40.834,-45l112.084,0c5,-45.417 -24.167,-88.75 -72.5,-88.75Zm-40,66.667c0.833,-22.5 16.666,-40.417 40,-40.417c22.5,0 37.083,19.167 38.333,40.417l-78.333,-0Z" style="fill:#fff;fill-rule:nonzero;"/><path d="M1566.36,133.432c-45.416,0 -73.75,37.083 -73.75,80.417c0,47.083 26.667,80 74.584,80c33.333,-0 61.666,-18.75 69.166,-52.084l-31.666,0c-5.834,16.667 -17.5,25.417 -37.084,25.417c-27.916,0 -40.833,-21.25 -40.833,-45l112.083,0c5.417,-45.417 -24.166,-88.75 -72.5,-88.75Zm-40,66.667c0.834,-22.5 16.667,-40.417 40,-40.417c22.5,0 37.084,19.167 38.334,40.417l-78.334,-0Z" style="fill:#fff;fill-rule:nonzero;"/><path d="M1768.03,157.182l-0.417,0c-10.416,-16.667 -31.666,-23.75 -50.833,-23.75c-33.333,0 -65.833,24.167 -65.833,79.167c-0,45.833 23.333,81.25 71.25,81.25c19.166,-0 38.333,-7.5 47.083,-24.584l0.417,0l-0,20.834l31.666,-0l0,-210.417l-33.75,0l0,77.5l0.417,0Zm-41.25,110.417c-29.167,-0 -42.083,-25.834 -42.083,-52.084c-0,-27.5 11.25,-55.416 42.916,-55.416c25.834,-0 42.084,20 42.084,53.75c-0.417,26.25 -12.917,53.75 -42.917,53.75Z" style="fill:#fff;fill-rule:nonzero;"/><path d="M1910.53,200.099c-24.583,-5.417 -49.583,-7.917 -49.583,-24.584c-0,-13.333 17.916,-15.833 27.5,-15.833c14.583,0 27.916,4.583 30.833,20.417l35,-0c-4.167,-33.75 -32.5,-46.667 -63.75,-46.667c-27.5,0 -63.75,10.417 -63.75,43.75c0,30.833 24.167,40 48.75,45c24.583,5.417 48.75,7.5 50,25.417c0.833,17.5 -21.25,20 -33.75,20c-17.917,-0 -32.917,-7.084 -34.583,-26.667l-33.75,0c0.416,35.833 29.166,52.917 67.5,52.917c31.666,-0 67.916,-13.334 67.916,-49.584c0.834,-30 -23.75,-38.75 -48.333,-44.166Z" style="fill:#fff;fill-rule:nonzero;"/><path d="M1070.94,137.599l-32.084,-0l0,-15.834c0,-12.5 7.5,-15.833 16.667,-15.833c6.667,0 11.25,0.417 15.417,1.667l-0,-26.25c-5.417,-1.667 -12.917,-2.084 -23.75,-2.084c-21.667,0 -42.084,6.667 -42.084,45.417l0,12.5l-25,0l0,25l25,0l0,127.5l33.75,0l0,-127.5l32.084,0l-0,-24.583Z" style="fill:#fff;fill-rule:nonzero;"/><path d="M1160.53,163.015l0,-25.416l-30.417,-0l0,-45.834l-33.75,0l0,45.834l-21.666,-0l-0,25l21.666,-0l0,90c0.417,25.416 7.084,38.75 42.084,38.75c7.5,-0 14.583,-1.25 21.666,-1.667l0,-25.833c-4.583,1.25 -9.583,1.25 -14.166,1.25c-15,-0 -16.25,-7.084 -16.25,-20.834l-0,-81.25l30.833,0Z" style="fill:#fff;fill-rule:nonzero;"/></svg>