<svg width="315" height="205" viewBox="0 0 315 205" fill="none" xmlns="http://www.w3.org/2000/svg">
<path d="M196.3 116.857C214.9 87.9565 219.6 47.8565 214.9 37.9565C213.1 34.1565 211.2 31.4565 209.4 29.5565C208.6 28.6565 208.5 27.4565 209.1 26.4565C215.3 16.6565 215.3 10.1565 213.5 6.15651C213.2 5.45651 212.8 4.85651 212.2 4.35651C211.7 3.85651 211 3.35651 210.4 3.05651C206.4 1.35651 199.9 1.25651 190.1 7.45651C189.1 8.05651 187.8 7.95651 187 7.15651C185.1 5.35651 182.4 3.45651 178.6 1.65651C168.7 -2.94349 128.5 1.6565 99.7 20.2565C99 20.7565 98.6 21.6565 98.9 22.4565C99.2 23.2565 100 23.8565 100.9 23.7565C101.3 23.7565 137 21.8565 164.2 27.9565C166.3 28.4565 167.3 30.9565 166 32.7565C163.2 36.6565 160.7 40.5565 158.3 44.4565C158.2 44.5565 158.4 44.6565 158.5 44.6565C164.3 41.8565 168.3 42.0565 170.9 43.1565C171.5 43.3565 171.9 43.7565 172.4 44.1565C172.8 44.5565 173.2 45.0565 173.4 45.6565C174.5 48.3565 174.7 52.3565 171.9 58.0565C171.9 58.1565 172 58.2565 172.1 58.2565C176 55.8565 179.9 53.3565 183.8 50.5565C185.6 49.2565 188.1 50.1565 188.6 52.3565C194.7 79.5565 192.8 115.357 192.8 115.657C192.8 116.557 193.3 117.357 194.1 117.657C194.9 117.857 195.8 117.557 196.3 116.857Z" fill="#ED2207"/>
<path d="M155.4 119.157C166.6 101.757 169.4 77.6565 166.6 71.6565C165.6 69.4565 164.4 67.7565 163.3 66.6565C162.8 66.1565 162.7 65.3565 163.1 64.7565C166.8 58.8565 166.8 55.0565 165.8 52.6565C165.6 52.2565 165.3 51.8565 165 51.4565C164.7 51.1565 164.3 50.8565 163.8 50.6565C161.4 49.6565 157.5 49.6565 151.7 53.3565C151.1 53.7565 150.3 53.6565 149.8 53.1565C148.6 52.0565 147 50.9565 144.8 49.8565C138.8 47.0565 114.7 49.8565 97.3 61.0565C96.9 61.3565 96.7 61.8565 96.8 62.3565C97 62.8565 97.4 63.1565 98 63.1565C98.2 63.1565 119.7 61.9565 136.1 65.6565C137.4 65.9565 138 67.4565 137.2 68.5565C133.9 73.0565 131.3 77.4565 128.8 82.2565C128.5 82.7565 128.1 83.2565 127.6 83.5565L114.6 91.5565C114.1 91.8565 113.9 92.4565 114.1 93.0565C114.3 93.5565 114.9 93.8565 115.5 93.7565L127.8 88.1565C128 88.0565 128.2 88.1565 128.3 88.2565C128.4 88.3565 128.5 88.5565 128.4 88.7565L122.8 101.057C122.7 101.657 123 102.157 123.5 102.457C124 102.657 124.7 102.457 125 101.957L133 88.9565C133.3 88.4565 133.8 88.0565 134.3 87.7565C139.1 85.2565 143.5 82.6565 148 79.3565C149.1 78.5565 150.6 79.1565 150.9 80.4565C154.6 96.8565 153.4 118.357 153.4 118.557C153.4 119.057 153.7 119.557 154.2 119.757C154.6 119.857 155.2 119.657 155.4 119.157Z" fill="black"/>
<path d="M28.4 178.156C26 177.456 15.9 174.856 15.2 174.656C11.9 173.756 9.8 171.956 9.8 168.756C9.8 164.156 14.5 162.756 18.2 162.756C23.7 162.756 27.7 164.956 28.1 170.856H36.1C36.1 161.356 28.1 156.256 18.5 156.256C10.2 156.256 1.8 160.556 1.8 169.756C1.8 174.456 4.09999 179.256 11.9 181.356C18.2 183.056 22.3 183.956 25.5 185.156C27.4 185.856 29.3 187.256 29.3 190.756C29.3 194.256 26.7 197.656 19.6 197.656C13.2 197.656 8 194.856 8 187.856H0C0.2 199.156 8.7 204.156 19.1 204.156C28.2 204.156 37.3 200.056 37.3 189.756C37.3 185.056 34.4 179.956 28.4 178.156Z" fill="black"/>
<path d="M73 194.656H72.9L66.9 169.956H59.6L53.3 194.656H53.2L46.7 169.956H39L49.2 203.056H56.9L63 178.456H63.1L69.3 203.056H76.8L87.2 169.956H79.7L73 194.656Z" fill="black"/>
<path d="M98.1 157.356H90.8V164.256H98.1V157.356Z" fill="black"/>
<path d="M98.1 169.956H90.8V203.056H98.1V169.956Z" fill="black"/>
<path d="M153.7 157.356H145.7V203.056H176.9V196.156H153.7V157.356Z" fill="black"/>
<path d="M194.6 169.056C184.7 169.056 178.6 177.156 178.6 186.556C178.6 196.756 184.4 203.956 194.8 203.956C202 203.956 208.2 199.956 209.8 192.656H202.9C201.6 196.356 199.1 198.156 194.8 198.156C188.7 198.156 185.9 193.556 185.9 188.356H210.2C211.4 178.456 205 169.056 194.6 169.056ZM185.8 183.556C186 178.656 189.5 174.756 194.5 174.756C199.4 174.756 202.6 178.956 202.8 183.556H185.8Z" fill="black"/>
<path d="M228.9 169.056C219 169.056 212.9 177.156 212.9 186.556C212.9 196.756 218.7 203.956 229.1 203.956C236.3 203.956 242.5 199.956 244.1 192.656H237.2C235.9 196.356 233.4 198.156 229.1 198.156C223 198.156 220.2 193.556 220.2 188.356H244.6C245.7 178.456 239.3 169.056 228.9 169.056ZM220.2 183.556C220.4 178.656 223.9 174.756 228.9 174.756C233.8 174.756 237 178.956 237.2 183.556H220.2Z" fill="black"/>
<path d="M272.7 174.256H272.6C270.4 170.556 265.7 169.056 261.6 169.056C254.4 169.056 247.2 174.356 247.2 186.256C247.2 196.156 252.3 203.956 262.7 203.956C266.9 203.956 271 202.356 273 198.556H273.1V203.056H280V157.256H272.7V174.256ZM263.7 198.256C257.4 198.256 254.5 192.656 254.5 186.956C254.5 180.956 256.9 174.956 263.8 174.956C269.4 174.956 273 179.356 273 186.656C273 192.256 270.2 198.256 263.7 198.256Z" fill="black"/>
<path d="M303.7 183.556C298.3 182.356 292.9 181.856 292.9 178.256C292.9 175.356 296.8 174.856 298.9 174.856C302.1 174.856 305 175.856 305.6 179.256H313.2C312.3 171.856 306.2 169.056 299.4 169.056C293.4 169.056 285.6 171.256 285.6 178.556C285.6 185.256 290.9 187.256 296.2 188.356C301.5 189.556 306.8 190.056 307 193.856C307.2 197.656 302.4 198.256 299.6 198.256C295.7 198.256 292.5 196.756 292.1 192.456H284.8C284.9 200.256 291.1 203.956 299.5 203.956C306.4 203.956 314.3 201.056 314.3 193.156C314.4 186.656 309 184.756 303.7 183.556Z" fill="black"/>
<path d="M121.2 169.956H120.4H120.3H114.2V166.556C114.2 163.756 115.8 163.056 117.8 163.056C119.3 163.056 120.2 163.156 121.2 163.456V157.756C120 157.456 118.4 157.256 116.1 157.256C111.4 157.256 106.9 158.656 106.9 167.156V169.956H101.5V175.356H106.9V203.056H114.2V175.356H120.3H120.4H121.2V169.956V169.956Z" fill="black"/>
<path d="M140.7 175.356V169.956H134.1V160.056H126.8V169.956H122.1V175.356H126.8V194.856C126.9 200.356 128.3 203.356 136 203.356C137.6 203.356 139.1 203.056 140.7 202.956V197.356C139.7 197.656 138.6 197.656 137.6 197.656C134.3 197.656 134.1 196.156 134.1 193.156V175.456H140.7V175.356Z" fill="black"/>
</svg>
