<svg width="471" height="89" viewBox="0 0 471 89" fill="none" xmlns="http://www.w3.org/2000/svg">
<path d="M73.726 86.6237C87.526 65.2237 90.926 35.4237 87.526 28.1237C86.226 25.3237 84.726 23.3237 83.426 21.9237C82.826 21.3237 82.726 20.3237 83.226 19.6237C87.826 12.3237 87.826 7.52369 86.526 4.52369C86.326 4.02369 86.026 3.52369 85.626 3.12369C85.226 2.72369 84.726 2.42369 84.226 2.22369C81.226 0.923693 76.426 0.923688 69.126 5.52369C68.426 6.02369 67.426 5.92369 66.826 5.32369C65.426 4.02369 63.426 2.52369 60.626 1.22369C53.226 -2.17631 23.526 1.22369 2.12602 15.0237C1.52602 15.4237 1.32602 16.0237 1.52602 16.7237C1.72602 17.3237 2.32602 17.7237 3.02602 17.7237C3.32602 17.7237 29.826 16.3237 50.026 20.8237C51.626 21.2237 52.326 23.0237 51.326 24.3237C49.226 27.2237 47.326 30.1237 45.626 33.0237C45.626 33.1237 45.626 33.2237 45.726 33.1237C50.026 31.0237 52.926 31.2237 54.926 32.0237C55.326 32.2237 55.726 32.4237 56.026 32.8237C56.326 33.1237 56.626 33.5237 56.826 33.9237C57.626 35.9237 57.826 38.8237 55.726 43.1237C55.726 43.2237 55.726 43.3237 55.826 43.2237C58.726 41.4237 61.626 39.6237 64.526 37.5237C65.826 36.5237 67.726 37.2237 68.026 38.8237C72.526 59.0237 71.126 85.5237 71.126 85.8237C71.126 86.5237 71.526 87.1237 72.126 87.3237C72.626 87.4237 73.326 87.1237 73.726 86.6237Z" fill="#ED2207"/>
<path d="M43.426 88.3237C51.726 75.4237 53.826 57.5237 51.726 53.1237C50.926 51.4237 50.126 50.2237 49.326 49.4237C48.926 49.0237 48.926 48.4237 49.226 48.0237C52.026 43.7237 52.026 40.8237 51.226 39.0237C51.126 38.7237 50.926 38.4237 50.626 38.1237C50.326 37.8237 50.126 37.6237 49.726 37.5237C47.926 36.8237 45.026 36.8237 40.726 39.5237C40.226 39.8237 39.726 39.7237 39.326 39.4237C38.426 38.6237 37.226 37.7237 35.626 37.0237C31.226 34.9237 13.326 37.0237 0.426014 45.3237C0.126014 45.5237 -0.0739872 45.9237 0.0260128 46.3237C0.126013 46.7237 0.526014 46.9237 0.926014 46.9237C1.12601 46.9237 17.026 46.0237 29.126 48.8237C30.126 49.0237 30.526 50.1237 29.926 50.9237C27.526 54.2237 25.626 57.5237 23.726 61.1237C23.526 61.5237 23.226 61.8237 22.826 62.1237L13.226 68.0237C12.826 68.2237 12.726 68.7237 12.826 69.1237C13.026 69.5237 13.426 69.7237 13.826 69.6237L22.926 65.4237C23.026 65.3237 23.226 65.4237 23.326 65.5237C23.426 65.6237 23.426 65.7237 23.426 65.9237L19.226 75.0237C19.126 75.4237 19.326 75.9237 19.726 76.0237C20.126 76.2237 20.626 76.0237 20.826 75.6237L26.726 66.0237C26.926 65.6237 27.326 65.3237 27.726 65.1237C31.326 63.2237 34.526 61.3237 37.926 58.9237C38.726 58.3237 39.826 58.7237 40.026 59.7237C42.726 71.8237 41.926 87.8237 41.926 87.9237C41.926 88.3237 42.126 88.7237 42.526 88.8237C42.726 88.8237 43.226 88.6237 43.426 88.3237Z" fill="black"/>
<path d="M154.626 42.0237C152.026 41.2237 140.826 38.3237 140.026 38.1237C136.426 37.1237 134.026 35.1237 134.026 31.6237C134.026 26.5237 139.226 25.0237 143.326 25.0237C149.426 25.0237 153.826 27.4237 154.226 33.9237H163.026C163.026 23.4237 154.226 17.8237 143.626 17.8237C134.526 17.8237 125.126 22.5237 125.126 32.7237C125.126 37.9237 127.626 43.2237 136.326 45.5237C143.226 47.4237 147.826 48.3237 151.426 49.7237C153.526 50.5237 155.626 52.0237 155.626 55.9237C155.626 59.7237 152.726 63.5237 144.926 63.5237C137.826 63.5237 132.126 60.5237 132.126 52.7237H123.326C123.526 65.2237 132.926 70.7237 144.426 70.7237C154.426 70.7237 164.526 66.2237 164.526 54.9237C164.426 49.7237 161.226 44.0237 154.626 42.0237Z" fill="black"/>
<path d="M203.826 60.3237H203.726L197.126 33.0237H189.026L182.126 60.3237H182.026L174.826 33.0237H166.326L177.626 69.6237H186.126L192.826 42.4237H192.926L199.726 69.6237H208.026L219.526 33.0237H211.326L203.826 60.3237Z" fill="black"/>
<path d="M231.526 19.0237H223.426V26.6237H231.526V19.0237Z" fill="black"/>
<path d="M231.526 33.0237H223.426V69.6237H231.526V33.0237Z" fill="black"/>
<path d="M292.926 19.0237H284.126V69.6237H318.626V61.9237H292.926V19.0237Z" fill="black"/>
<path d="M338.026 32.0237C327.126 32.0237 320.326 40.9237 320.326 51.3237C320.326 62.6237 326.726 70.5237 338.226 70.5237C346.226 70.5237 353.026 66.0237 354.826 58.0237H347.226C345.826 62.0237 343.026 64.1237 338.326 64.1237C331.626 64.1237 328.526 59.0237 328.526 53.3237H355.426C356.626 42.4237 349.626 32.0237 338.026 32.0237ZM328.426 48.0237C328.626 42.6237 332.426 38.3237 338.026 38.3237C343.426 38.3237 346.926 42.9237 347.226 48.0237H328.426Z" fill="black"/>
<path d="M375.926 32.0237C365.026 32.0237 358.226 40.9237 358.226 51.3237C358.226 62.6237 364.626 70.5237 376.126 70.5237C384.126 70.5237 390.926 66.0237 392.726 58.0237H385.126C383.726 62.0237 380.926 64.1237 376.226 64.1237C369.526 64.1237 366.426 59.0237 366.426 53.3237H393.326C394.626 42.4237 387.526 32.0237 375.926 32.0237ZM366.326 48.0237C366.526 42.6237 370.326 38.3237 375.926 38.3237C381.326 38.3237 384.826 42.9237 385.126 48.0237H366.326Z" fill="black"/>
<path d="M424.326 37.7237H424.226C421.726 33.7237 416.626 32.0237 412.026 32.0237C404.026 32.0237 396.226 37.8237 396.226 51.0237C396.226 62.0237 401.826 70.5237 413.326 70.5237C417.926 70.5237 422.526 68.7237 424.626 64.6237H424.726V69.6237H432.326V19.1237H424.226V37.7237H424.326ZM414.426 64.2237C407.426 64.2237 404.326 58.0237 404.326 51.7237C404.326 45.1237 407.026 38.4237 414.626 38.4237C420.826 38.4237 424.726 43.2237 424.726 51.3237C424.626 57.6237 421.626 64.2237 414.426 64.2237Z" fill="black"/>
<path d="M458.526 48.0237C452.626 46.7237 446.626 46.1237 446.626 42.1237C446.626 38.9237 450.926 38.3237 453.226 38.3237C456.726 38.3237 459.926 39.4237 460.626 43.2237H469.026C468.026 35.1237 461.226 32.0237 453.726 32.0237C447.126 32.0237 438.426 34.5237 438.426 42.5237C438.426 49.9237 444.226 52.1237 450.126 53.3237C456.026 54.6237 461.826 55.1237 462.126 59.4237C462.326 63.6237 457.026 64.2237 454.026 64.2237C449.726 64.2237 446.126 62.5237 445.726 57.8237H437.626C437.726 66.4237 444.626 70.5237 453.826 70.5237C461.426 70.5237 470.126 67.3237 470.126 58.6237C470.326 51.4237 464.426 49.3237 458.526 48.0237Z" fill="black"/>
<path d="M257.026 33.0237H256.126H256.026H249.326V29.2237C249.326 26.2237 251.126 25.4237 253.326 25.4237C254.926 25.4237 256.026 25.5237 257.026 25.8237V19.5237C255.726 19.1237 253.926 19.0237 251.326 19.0237C246.126 19.0237 241.226 20.6237 241.226 29.9237V32.9237H235.226V38.9237H241.226V69.5237H249.326V38.9237H256.026H256.126H257.026V33.0237Z" fill="black"/>
<path d="M278.526 39.0237V33.0237H271.226V22.0237H263.126V33.0237H257.926V39.0237H263.126V60.6237C263.226 66.7237 264.826 69.9237 273.226 69.9237C275.026 69.9237 276.726 69.6237 278.426 69.5237V63.3237C277.326 63.6237 276.126 63.6237 275.026 63.6237C271.426 63.6237 271.126 61.9237 271.126 58.6237V39.1237H278.526V39.0237Z" fill="black"/>
</svg>
