<svg width="1179" height="362" viewBox="0 0 1179 362" fill="none" xmlns="http://www.w3.org/2000/svg">
<g clip-path="url(#clip0_1803_979)">
<path d="M0 113.615H36.7416L43.3841 132.323H44.7087C50.132 124.506 56.8521 117.675 64.5782 112.125C73.7378 105.308 86.0334 101.897 101.465 101.89C130.523 101.89 149.809 113.341 159.323 136.241C166.014 124.413 174.374 115.73 184.404 110.19C194.434 104.651 206.394 101.884 220.285 101.89C232.629 101.89 243.043 103.951 251.525 108.072C259.706 111.932 266.8 117.766 272.168 125.049C277.613 132.632 281.482 141.23 283.549 150.335C285.927 160.519 287.092 170.948 287.02 181.406V291.79H240.754V186.804C240.771 181.286 240.256 175.779 239.217 170.359C238.316 165.427 236.481 160.712 233.812 156.468C231.206 152.465 227.6 149.214 223.35 147.036C218.974 144.715 213.314 143.554 206.372 143.554C199.165 143.554 193.042 144.908 188.001 147.617C183.103 150.211 178.876 153.911 175.654 158.422C172.362 163.084 170.005 168.34 168.712 173.9C167.305 179.646 166.594 185.541 166.594 191.457V291.79H120.367V181.406C120.367 169.798 117.924 160.599 113.038 153.808C108.152 147.017 100.05 143.606 88.731 143.573C80.9959 143.573 74.5017 144.863 69.2483 147.443C64.1468 149.888 59.662 153.452 56.1276 157.871C52.6232 162.324 50.0635 167.446 48.6053 172.923C47.0496 178.71 46.2725 184.68 46.2944 190.673V291.79H0V113.615Z" fill="#242836"/>
<path d="M331.061 16.0869L373.875 0V183.331L445.24 106.524H504.655L425.187 190.683L509.673 291.809H448.334L374.648 197.242H373.875V291.809H327.58V21.1075C327.582 20.0158 327.915 18.9505 328.537 18.0535C329.159 17.1565 330.04 16.4705 331.061 16.0869" fill="#242836"/>
<path d="M560.678 199.157C560.659 206.265 561.9 213.319 564.343 219.994C566.717 226.578 570.39 232.618 575.143 237.754C580.262 243.219 586.446 247.575 593.315 250.553C600.183 253.531 607.59 255.067 615.075 255.067C622.561 255.067 629.967 253.531 636.836 250.553C643.704 247.575 649.889 243.219 655.008 237.754C659.761 232.618 663.433 226.578 665.808 219.994C670.694 206.529 670.694 191.775 665.808 178.311C663.423 171.74 659.752 165.711 655.008 160.579C649.889 155.114 643.704 150.758 636.836 147.78C629.967 144.803 622.561 143.266 615.075 143.266C607.59 143.266 600.183 144.803 593.315 147.78C586.446 150.758 580.262 155.114 575.143 160.579C570.397 165.717 566.725 171.752 564.343 178.33C561.901 185.008 560.66 192.066 560.678 199.176V199.157ZM514.384 199.176C514.384 184.511 517.02 171.194 522.293 159.225C527.286 147.654 534.571 137.216 543.71 128.541C552.951 119.897 563.839 113.205 575.723 108.865C601.139 99.5915 629.011 99.5915 654.427 108.865C666.313 113.137 677.192 119.814 686.384 128.478C695.577 137.143 702.887 147.609 707.857 159.225C713.124 171.188 715.76 184.505 715.767 199.176C715.773 213.848 713.137 227.165 707.857 239.128C702.881 250.741 695.569 261.206 686.378 269.871C677.186 278.536 666.31 285.217 654.427 289.497C629.009 298.758 601.141 298.758 575.723 289.497C563.84 285.146 552.953 278.448 543.71 269.802C534.572 261.131 527.286 250.696 522.293 239.128C517.02 227.152 514.384 213.828 514.384 199.157" fill="#242836"/>
<path d="M791.308 199.157C791.287 206.266 792.532 213.321 794.982 219.994C797.35 226.581 801.023 232.622 805.782 237.754C810.899 243.22 817.083 247.577 823.951 250.556C830.819 253.534 838.225 255.071 845.71 255.071C853.195 255.071 860.601 253.534 867.469 250.556C874.337 247.577 880.52 243.22 885.637 237.754C890.391 232.618 894.063 226.578 896.438 219.994C901.324 206.529 901.324 191.775 896.438 178.311C894.064 171.741 890.402 165.712 885.667 160.579C880.549 155.114 874.366 150.756 867.498 147.778C860.63 144.799 853.224 143.262 845.739 143.262C838.254 143.262 830.848 144.799 823.98 147.778C817.112 150.756 810.928 155.114 805.811 160.579C801.056 165.71 797.383 171.748 795.011 178.33C792.561 185.006 791.317 192.065 791.337 199.176L791.308 199.157ZM901.678 263.989H900.905C894.214 275.313 885.212 283.548 873.9 288.695C862.384 293.885 849.884 296.524 837.254 296.433C822.838 296.433 808.248 293.918 797.1 288.907C786.191 284.09 776.402 277.057 768.354 268.255C760.265 259.31 754.094 248.801 750.225 237.377C746.033 225.078 743.947 212.16 744.056 199.167C743.947 186.141 746.167 173.2 750.612 160.957C754.72 149.59 760.955 139.111 768.983 130.079C776.886 121.285 786.548 114.248 797.341 109.426C808.393 104.406 822.248 101.9 835.369 101.9C843.17 101.79 850.952 102.7 858.516 104.609C864.686 106.209 870.642 108.541 876.259 111.554C880.958 114.074 885.359 117.115 889.379 120.618C892.637 123.477 895.61 126.645 898.255 130.079H899.406V20.6045C899.408 19.5026 899.748 18.4279 900.381 17.5263C901.014 16.6247 901.909 15.9398 902.945 15.5646L945.613 0V291.79H901.649L901.678 263.989Z" fill="#242836"/>
<path d="M1023.93 199.157C1023.91 206.265 1025.15 213.321 1027.6 219.994C1029.96 226.581 1033.64 232.622 1038.4 237.754C1043.51 243.22 1049.7 247.577 1056.57 250.556C1063.43 253.534 1070.84 255.071 1078.32 255.071C1085.81 255.071 1093.22 253.534 1100.08 250.556C1106.95 247.577 1113.13 243.22 1118.25 237.754C1123 232.618 1126.68 226.578 1129.05 219.994C1133.94 206.529 1133.94 191.775 1129.05 178.311C1126.66 171.738 1122.98 165.71 1118.23 160.579C1113.39 155.365 1107.55 151.166 1101.07 148.226C1094.38 145.14 1078.31 143.593 1078.31 143.593C1078.31 143.593 1062.23 145.14 1055.55 148.226C1049.06 151.165 1043.23 155.364 1038.38 160.579C1033.63 165.713 1029.95 171.749 1027.58 178.33C1025.13 185.007 1023.89 192.065 1023.91 199.176L1023.93 199.157ZM977.618 199.176C977.618 184.511 980.255 171.194 985.528 159.225C990.498 147.609 997.808 137.143 1007 128.478C1016.19 119.814 1027.07 113.137 1038.96 108.865C1064.37 99.5915 1092.25 99.5915 1117.66 108.865C1129.55 113.141 1140.42 119.819 1149.61 128.483C1158.81 137.147 1166.12 147.612 1171.09 159.225C1176.35 171.188 1178.99 184.505 1179 199.176C1179.01 213.848 1176.38 227.165 1171.09 239.128C1166.09 250.692 1158.81 261.126 1149.68 269.802C1140.43 278.446 1129.54 285.144 1117.66 289.497C1092.24 298.758 1064.38 298.758 1038.96 289.497C1027.07 285.147 1016.18 278.449 1006.93 269.802C997.802 261.128 990.52 250.693 985.528 239.128C980.248 227.158 977.612 213.841 977.618 199.176" fill="#242836"/>
<path d="M19.6073 328.723H25.1379L44.6786 361.613H39.6411L35.5512 354.658H9.20359L5.11367 361.613H0.0665283L19.6073 328.723ZM22.3822 332.36L11.3404 351.04H33.4144L22.3822 332.36Z" fill="#242836"/>
<path d="M72.7196 328.723H100.208C109.79 328.723 112.111 333.56 112.111 339.993V342.808C112.111 347.722 109.974 353.361 102.848 353.361H82.8042V361.632H72.7196V328.723ZM82.8042 345.168H98.4774C100.846 345.168 101.755 343.62 101.755 341.666V340.389C101.755 338.164 100.663 336.897 97.6169 336.897H82.8042V345.168Z" fill="#242836"/>
<path d="M117.864 340.273C117.864 330.6 123.269 328.356 132.368 328.356H148.544C157.632 328.356 163.047 330.629 163.047 340.273V350.082C163.047 359.756 157.642 362 148.544 362H132.358C123.269 362 117.855 359.727 117.855 350.082L117.864 340.273ZM128.229 346.948C128.229 351.727 129.196 353.536 134.031 353.536H146.939C151.705 353.536 152.74 351.727 152.74 346.948V343.408C152.74 339.316 151.773 336.81 146.426 336.81H134.543C129.225 336.81 128.229 339.316 128.229 343.408V346.948Z" fill="#242836"/>
<path d="M170.173 328.723H180.267V353.178H202.941V361.632H170.173V328.723Z" fill="#242836"/>
<path d="M208.199 328.723H218.284V353.178H240.957V361.632H208.199V328.723Z" fill="#242836"/>
<path d="M260.836 328.723H273.966L292.057 361.613H280.831L277.698 355.809H257.249L254.29 361.613H243.026L260.836 328.723ZM261.058 348.728H273.966L267.42 336.356L261.058 348.728Z" fill="#242836"/>
<path d="M296.668 328.723H327.115C334.85 328.723 336.978 332.593 336.978 338.493V340.583C336.978 344.994 336.011 347.586 331.341 348.68V348.767C334.338 349.318 336.842 350.634 336.842 356.041V361.632H326.748V357.676C326.748 354.222 325.781 353.091 322.619 353.091H306.753V361.632H296.668V328.723ZM306.753 344.907H323.432C326.158 344.907 327.164 343.814 327.164 341.453V340.36C327.164 337.458 325.704 336.907 322.523 336.907H306.753V344.907Z" fill="#242836"/>
<path d="M345.178 328.723H375.625C385.719 328.723 389.258 332.041 389.258 340.177V350.179C389.258 358.314 385.719 361.632 375.625 361.632H345.178V328.723ZM355.272 353.178H373.217C377.53 353.178 379.212 351.949 379.212 347.267V342.808C379.212 338.135 377.53 336.907 373.217 336.907H355.272V353.178Z" fill="#242836"/>
<path d="M419.831 328.723H448.838C456.882 328.723 460.788 330.9 460.788 337.362C460.788 342.992 458.748 344.085 455.954 344.907V345.042C460.373 345.584 461.997 347.944 461.997 352.907C461.997 360.133 457.733 361.613 451.961 361.613H419.831V328.723ZM429.925 341.773H447.784C449.64 341.773 450.733 341.086 450.733 339.219C450.733 337.352 449.602 336.636 447.784 336.636H429.925V341.773ZM429.925 353.719H448.006C450.191 353.719 451.642 353.226 451.642 351.311C451.642 349.086 450.191 348.583 448.006 348.583H429.925V353.719Z" fill="#242836"/>
<path d="M483.704 328.723H496.834L514.915 361.613H503.747L500.605 355.809H480.117L477.158 361.613H465.894L483.704 328.723ZM483.888 348.728H496.795L490.211 336.356L483.888 348.728Z" fill="#242836"/>
<path d="M519.537 328.723H535.171L554.113 352.636H554.209V328.723H564.294V361.613H548.669L529.718 337.7H529.621V361.613H519.537V328.723Z" fill="#242836"/>
<path d="M572.135 328.723H582.23V340.815H586.948L599.672 328.723H613.402L595.602 344.81L615.51 361.632H601.219L586.716 348.999H582.268V361.632H572.135V328.723Z" fill="#242836"/>
<path d="M620.284 328.723H635.909L654.87 352.636H654.957V328.723H665.041V361.613H649.407L630.465 337.7H630.407V361.613H620.284V328.723Z" fill="#242836"/>
<path d="M672.158 340.273C672.158 330.6 677.563 328.356 686.661 328.356H702.828C711.916 328.356 717.331 330.629 717.331 340.273V350.082C717.331 359.756 711.926 362 702.828 362H686.652C677.563 362 672.148 359.727 672.148 350.082L672.158 340.273ZM682.523 346.948C682.523 351.727 683.49 353.536 688.324 353.536H701.232C705.999 353.536 707.034 351.727 707.034 346.948V343.408C707.034 339.316 706.067 336.81 700.71 336.81H688.837C683.519 336.81 682.523 339.316 682.523 343.408V346.948Z" fill="#242836"/>
<path d="M722.032 328.723H760.475V336.907H746.301V361.632H736.216V336.907H722.032V328.723Z" fill="#242836"/>
<path d="M765.909 328.723H801.896V336.356H775.994V341.628H800.581V348.399H775.994V353.671H802.515V361.584H765.909V328.723Z" fill="#242836"/>
<path d="M832.603 340.67C832.603 332.361 835.417 328.356 844.322 328.356H861.368C869.452 328.356 871.675 332.128 871.675 336.539V339.354H867.808V337.855C867.808 332.264 864.356 331.993 860.266 331.993H844.796C840.532 331.993 837.06 333.27 837.06 338.997V351.359C837.06 357.086 840.522 358.363 844.796 358.363H860.382C866.386 358.363 868.117 357.086 868.117 352.636V350.585H872.294V352.81C872.294 358.769 870.36 362 861.165 362H844.322C835.417 362 832.603 357.995 832.603 349.676V340.67Z" fill="#242836"/>
<path d="M879.614 340.67C879.614 332.361 882.427 328.356 891.332 328.356H910.283C919.188 328.356 922.011 332.361 922.011 340.67V349.676C922.011 357.995 919.188 362 910.283 362H891.332C882.427 362 879.614 357.995 879.614 349.676V340.67ZM917.573 338.997C917.573 333.27 914.121 331.993 909.838 331.993H891.787C887.513 331.993 884.052 333.27 884.052 338.997V351.359C884.052 357.086 887.503 358.363 891.787 358.363H909.838C914.112 358.363 917.573 357.086 917.573 351.359V338.997Z" fill="#242836"/>
<path d="M930.616 328.723H937.578L956.79 356.312L976.012 328.723H982.964V361.613H978.487V332.767H978.39L958.356 361.671H955.175L935.16 332.767H935.073V361.671H930.616V328.723Z" fill="#242836"/>
<path d="M992.45 328.723H1019.52C1025.52 328.723 1028.93 329.99 1028.93 337.681C1028.93 344.994 1028.34 348.68 1018.66 348.68H996.897V361.632H992.44L992.45 328.723ZM1024.48 337.216C1024.48 333.347 1022.35 332.38 1018.49 332.38H996.907V345.062H1018.86C1022.39 345.062 1024.48 343.785 1024.48 340.38V337.216Z" fill="#242836"/>
<path d="M1049.51 328.723H1055.05L1074.59 361.613H1069.54L1065.45 354.658H1039.1L1035.01 361.613H1029.96L1049.51 328.723ZM1052.27 332.36L1041.24 351.04H1063.31L1052.27 332.36Z" fill="#242836"/>
<path d="M1080.38 328.723H1087.01L1117.14 357.627V328.723H1121.59V361.613H1114.94L1084.84 332.767V361.671H1080.39L1080.38 328.723Z" fill="#242836"/>
<path d="M1146.39 347.722L1127.53 328.723H1133.53L1148.61 343.998L1163.69 328.723H1169.7L1150.83 347.722V361.632H1146.39V347.722Z" fill="#242836"/>
</g>
<defs>
<clipPath id="clip0_1803_979">
<rect width="1179" height="362" fill="white"/>
</clipPath>
</defs>
</svg>
