<svg id="Logos" xmlns="http://www.w3.org/2000/svg" viewBox="0 0 253.36 63.88"><defs><style>.cls-1{fill:#231f20;}.cls-1,.cls-2{fill-rule:evenodd;}.cls-2{fill:#005fff;}</style></defs><g id="StreamLogo"><path id="WorkMark" class="cls-1" d="M107.74,45.58a5.76,5.76,0,0,0,.9-1,2.19,2.19,0,0,0,.39-1.29,2,2,0,0,0-.64-1.51,5.72,5.72,0,0,0-1.57-1,9.93,9.93,0,0,0-1.93-.64l-1.68-.39a27.83,27.83,0,0,1-3.48-1.09A11.87,11.87,0,0,1,96.91,37,7.1,7.1,0,0,1,95,34.85a6,6,0,0,1-.7-3,6.14,6.14,0,0,1,.79-3.05,8.42,8.42,0,0,1,2.1-2.52,10.15,10.15,0,0,1,3.08-1.74,10.69,10.69,0,0,1,3.72-.64,10.55,10.55,0,0,1,3.3.5,10.77,10.77,0,0,1,2.83,1.37,8.5,8.5,0,0,1,2.13,2.1,6.92,6.92,0,0,1,1.15,2.75l-4.87,1.17a4.12,4.12,0,0,0-1.46-2.24,4.79,4.79,0,0,0-3.08-.89,5.35,5.35,0,0,0-1.4.19,4.75,4.75,0,0,0-1.34.59,3.8,3.8,0,0,0-1,.95,2.08,2.08,0,0,0-.42,1.29,2,2,0,0,0,.48,1.34,4,4,0,0,0,1.14.93,7.56,7.56,0,0,0,1.46.59c.52.14,1,.28,1.46.39a31.56,31.56,0,0,1,4.92,1.57,12.15,12.15,0,0,1,3.14,1.84A5.78,5.78,0,0,1,114,40.57a7.59,7.59,0,0,1-.33,6.07,8.59,8.59,0,0,1-2.24,2.72,10.89,10.89,0,0,1-3.42,1.79,13.8,13.8,0,0,1-4.28.64,11.44,11.44,0,0,1-6.19-1.7,8.43,8.43,0,0,1-3.67-4.57l4.59-2.07a5.22,5.22,0,0,0,2.3,2.66,7,7,0,0,0,3.19.7,5.76,5.76,0,0,0,3.75-1.23Zm24.55,5.54a18.23,18.23,0,0,1-4.53,1,8,8,0,0,1-4-.64,6.29,6.29,0,0,1-2.92-2.86,12.14,12.14,0,0,1-1.12-5.74V30.4h-4.45V24.49h1.22a3.9,3.9,0,0,0,3.67-1.83c.39-.63.44-1.27.48-3v-2h4.67v6.89h5.49V30.4h-5.49l-.15,13.27a6.1,6.1,0,0,0,.3,2.13,2.23,2.23,0,0,0,1,1.18,4,4,0,0,0,1.9.39,23.83,23.83,0,0,0,2.86-.22l1.06,4Zm17.18-21.78-.78-.34c-.23-.07-.49-.15-.79-.22a3.64,3.64,0,0,0-1-.11,8.3,8.3,0,0,0-3,.53,7.48,7.48,0,0,0-2.41,1.43,6.59,6.59,0,0,0-1.6,2.1,5.74,5.74,0,0,0-.59,2.54l-.05,16.51h-5.43V24.35h4.31l1.12,3a8.14,8.14,0,0,1,2.94-2.6,9.44,9.44,0,0,1,4.56-1,19.65,19.65,0,0,1,4.09.5l-1.4,5.1Zm14.1,22.51a13.62,13.62,0,0,1-5.46-1.09,14.12,14.12,0,0,1-4.46-3,14.08,14.08,0,0,1-4.08-10,14.65,14.65,0,0,1,3.83-10,13.12,13.12,0,0,1,4.12-3,11.8,11.8,0,0,1,5-1.09,13.15,13.15,0,0,1,5.07,1,10.38,10.38,0,0,1,4,3,14.33,14.33,0,0,1,2.66,5.12,25.68,25.68,0,0,1,1,7.42H155.33a9.17,9.17,0,0,0,1.24,2.72,9.61,9.61,0,0,0,2,2.18A8.83,8.83,0,0,0,164.13,47a9.9,9.9,0,0,0,3.94-.78,9.73,9.73,0,0,0,3.11-2.07l3.36,3.36a14.63,14.63,0,0,1-4.79,3.13,15.79,15.79,0,0,1-6.18,1.18Zm-1-23.18a6,6,0,0,0-2.44.5,8,8,0,0,0-2.13,1.4,8.89,8.89,0,0,0-1.68,2.13,9.88,9.88,0,0,0-1,2.69h14.17a8.7,8.7,0,0,0-.62-2.58,6.82,6.82,0,0,0-1.4-2.16,6.52,6.52,0,0,0-4.87-2Zm41.8-4.32V51.78h-4.59l-.84-3.68a9,9,0,0,1-3.59,2.8,11,11,0,0,1-4.42,1,12.65,12.65,0,0,1-5.24-1.09,13.44,13.44,0,0,1-4.25-3,14.6,14.6,0,0,1-2.89-15.45,14.1,14.1,0,0,1,2.89-4.48,13.44,13.44,0,0,1,4.25-3,12.65,12.65,0,0,1,5.24-1.09,11,11,0,0,1,4.31.87,10.09,10.09,0,0,1,3.7,2.71l.84-3ZM190.92,47a6.86,6.86,0,0,0,3.08-.72,8,8,0,0,0,2.52-2,9.64,9.64,0,0,0,1.68-2.94,10.84,10.84,0,0,0,0-7.17,9.64,9.64,0,0,0-1.68-2.94,8,8,0,0,0-2.52-2,6.86,6.86,0,0,0-6.16,0,8,8,0,0,0-2.52,2,9.64,9.64,0,0,0-1.68,2.94,10.67,10.67,0,0,0,0,7.17,9.64,9.64,0,0,0,1.68,2.94,8,8,0,0,0,2.52,2,6.83,6.83,0,0,0,3.08.72Zm22.81,4.75H208.3V24.35h4.31l1.12,2.3a10.39,10.39,0,0,1,2.41-2,6.34,6.34,0,0,1,3.42-.87,9,9,0,0,1,3.78.87,8.5,8.5,0,0,1,2,1.28A7,7,0,0,1,227,28a8.52,8.52,0,0,1,2.88-3A7.41,7.41,0,0,1,234,23.74a11.53,11.53,0,0,1,3.08.45,7.4,7.4,0,0,1,3,1.68,9,9,0,0,1,2.3,3.41,15,15,0,0,1,.9,5.66V51.78h-5.1V34.88c0-2.31-.48-3.93-1.43-4.84a5.2,5.2,0,0,0-3.78-1.37,4.06,4.06,0,0,0-3.13,1.51,7,7,0,0,0-1.35,4.76V51.78h-5.09V34.88c0-2.31-.48-3.93-1.43-4.84a5.2,5.2,0,0,0-3.78-1.37A4,4,0,0,0,215.22,30a6.39,6.39,0,0,0-1.49,4V51.78Z"/><path id="LogoMark" class="cls-2" d="M62.42,24.63,88,22.82A2,2,0,0,1,89.79,26l-17.91,25a2,2,0,0,1-1.63.83H30.08a2,2,0,0,1-1.62-.83L10.5,26a2,2,0,0,1,1.76-3.16l25.53,1.81L48.7,12.44a2,2,0,0,1,3,0L62.42,24.63Zm5.36,23.18L51.16,41.6v6.21Zm-18.62,0V41.6L32.54,47.81Zm-1.92-7.7-17,6.34L17.77,29.09l29.47,11Zm5.8,0,17,6.34L82.51,29.09,53,40.11Zm-3.86-1.45V17.77L35.29,33.44l13.89,5.22Zm2,0V17.77L65,33.44,51.16,38.66ZM31.22,32l3.2-3.59L18.81,27.29,31.22,32ZM69,32l-3.2-3.59,15.61-1.11L69,32Z"/></g></svg>