<svg width="180" height="180" viewBox="0 0 180 180" fill="none" xmlns="http://www.w3.org/2000/svg">
<path d="M149.216 175.226C177.116 131.926 184.116 71.7261 177.116 56.9261C174.516 51.3261 171.516 47.2261 168.916 44.3261C167.716 43.0261 167.616 41.1261 168.516 39.6261C177.816 24.8261 177.816 15.2261 175.216 9.12608C174.816 8.12608 174.116 7.12608 173.316 6.32608C172.516 5.52608 171.616 4.82607 170.516 4.42607C164.416 1.82607 154.816 1.72608 140.016 11.1261C138.516 12.0261 136.616 11.9261 135.316 10.7261C132.416 8.02608 128.316 5.12608 122.716 2.52608C107.816 -4.47392 47.7158 2.52607 4.41583 30.4261C3.31583 31.1261 2.81583 32.5261 3.21583 33.8261C3.61583 35.1261 4.81584 35.9261 6.11584 35.8261C6.71584 35.8261 60.3158 32.9261 101.116 42.1261C104.316 42.8261 105.716 46.6261 103.816 49.3261C99.6158 55.2261 95.8158 60.9261 92.2158 66.8261C92.1158 66.9261 92.3158 67.1261 92.4158 67.0261C101.016 62.8261 107.016 63.1261 111.016 64.8261C111.816 65.2261 112.616 65.7261 113.216 66.3261C113.816 66.9261 114.416 67.7261 114.716 68.5261C116.416 72.5261 116.716 78.5261 112.516 87.1261C112.416 87.3261 112.616 87.4261 112.716 87.3261C118.616 83.7261 124.416 80.0261 130.216 75.7261C132.916 73.8261 136.716 75.2261 137.416 78.4261C146.616 119.226 143.716 172.826 143.716 173.426C143.616 174.726 144.516 175.926 145.716 176.326C147.116 176.826 148.516 176.426 149.216 175.226Z" fill="#ED2207"/>
<path d="M87.9158 178.826C104.716 152.826 108.916 116.626 104.716 107.726C103.116 104.326 101.416 101.926 99.8158 100.226C99.1158 99.4261 99.0158 98.2261 99.5158 97.3261C105.116 88.5261 105.116 82.7261 103.516 79.1261C103.216 78.4261 102.816 77.8261 102.316 77.3261C101.816 76.8261 101.216 76.4261 100.516 76.1261C96.9158 74.6261 91.1158 74.6261 82.3158 80.1261C81.4158 80.7261 80.2158 80.6261 79.4158 79.8261C77.7158 78.2261 75.2158 76.5261 71.9158 74.9261C63.0158 70.7261 26.8158 74.9261 0.815839 91.7261C0.115839 92.1261 -0.184162 93.0261 0.115838 93.7261C0.315838 94.5261 1.11584 95.0261 1.91584 94.9261C2.21584 94.9261 34.5158 93.2261 59.0158 98.7261C60.9158 99.1261 61.8158 101.426 60.6158 103.026C55.7158 109.826 51.8158 116.326 48.0158 123.526C47.6158 124.326 47.0158 125.026 46.2158 125.426L26.7158 137.326C25.9158 137.726 25.6158 138.726 26.0158 139.526C26.3158 140.326 27.2158 140.726 28.1158 140.526L46.5158 132.126C46.8158 132.026 47.0158 132.126 47.2158 132.326C47.4158 132.526 47.5158 132.726 47.4158 133.026L39.0158 151.426C38.8158 152.226 39.2158 153.126 40.0158 153.526C40.8158 153.826 41.7158 153.526 42.2158 152.826L54.1158 133.326C54.6158 132.526 55.2158 131.926 56.0158 131.526C63.2158 127.726 69.8158 123.826 76.5158 118.926C78.1158 117.726 80.4158 118.626 80.8158 120.526C86.3158 145.026 84.6158 177.326 84.6158 177.626C84.6158 178.426 85.1158 179.126 85.8158 179.426C86.6158 179.726 87.5158 179.426 87.9158 178.826Z" fill="black"/>
</svg>
