<svg width="18" height="15" viewBox="0 0 18 15" fill="none" xmlns="http://www.w3.org/2000/svg">
<path d="M17 1.00731C16.3036 1.49857 15.5324 1.8743 14.7164 2.12004C14.2784 1.61641 13.6962 1.25945 13.0488 1.09744C12.4013 0.93543 11.7196 0.976183 11.0961 1.21419C10.4725 1.45219 9.93705 1.87597 9.56217 2.4282C9.18729 2.98043 8.99105 3.63447 9 4.30186V5.02913C7.72192 5.06227 6.45547 4.77881 5.31346 4.204C4.17145 3.62919 3.18932 2.78087 2.45455 1.73459C2.45455 1.73459 -0.454546 8.28004 6.09091 11.1891C4.59311 12.2058 2.80884 12.7156 1 12.6437C7.54545 16.28 15.5455 12.6437 15.5455 4.28004C15.5448 4.07746 15.5253 3.87538 15.4873 3.6764C16.2295 2.9444 16.7533 2.0202 17 1.00731Z" stroke="white" stroke-width="1.5" stroke-linecap="round" stroke-linejoin="round"/>
</svg>
