<svg width="1440" height="720" viewBox="0 0 1440 720" fill="none" xmlns="http://www.w3.org/2000/svg">
<g filter="url(#filter0_d_668_450)">
<circle cx="194.127" cy="526" r="170" fill="url(#paint0_linear_668_450)"/>
<circle cx="194.127" cy="526" r="169.5" stroke="#1B2949"/>
</g>
<g filter="url(#filter1_d_668_450)">
<path d="M298.884 426.294C301.066 429.259 302.373 443.778 298.489 455.807C298.394 456.089 298.069 456.361 297.927 456.407C297.627 456.421 297.422 456.153 297.36 455.84C297.359 455.837 297.356 455.819 297.351 455.785C297.206 454.871 295.276 442.72 291.597 434.167C291.298 433.429 290.453 433.369 289.978 434.024C287.936 436.69 285.958 438.918 283.695 441.238C283.442 441.487 283.205 441.815 283.125 442.175L280.431 451.063C280.352 451.422 280.027 451.695 279.712 451.63C279.412 451.644 279.191 451.298 279.2 450.961L280.763 442.858C280.731 442.701 280.716 442.622 280.629 442.567C280.542 442.512 280.384 442.479 280.329 442.581L274.515 447.973C274.246 448.144 273.93 448.079 273.726 447.812C273.592 447.521 273.585 447.106 273.838 446.857L279.742 440.016C279.979 439.689 280.145 439.385 280.225 439.025C281.013 435.764 281.848 432.738 283.038 429.597C283.34 428.831 282.883 428.061 282.141 428.135C273.547 428.701 263.035 432.679 261.891 433.112C261.832 433.135 261.798 433.148 261.791 433.15C261.506 433.242 261.19 433.178 261.057 432.887C260.923 432.597 261.003 432.237 261.185 432.011C269.059 422.527 281.459 416.752 284.917 417.383C286.164 417.563 287.158 417.992 287.923 418.412C288.255 418.555 288.626 418.518 288.935 418.167C291.57 415.058 293.632 414.39 295.022 414.523C295.322 414.509 295.495 414.62 295.755 414.786C296.016 414.952 296.205 415.141 296.323 415.353C297.173 416.58 297.627 418.854 296.309 422.871C296.158 423.254 296.252 423.725 296.599 423.946C297.293 424.389 298.049 425.145 298.884 426.294Z" fill="#DD5B5B"/>
<path d="M345.4 520.001C350.517 504.154 348.795 485.026 345.921 481.119C344.821 479.606 343.824 478.61 342.91 478.026C342.453 477.735 342.329 477.115 342.528 476.611C344.265 471.318 343.667 468.323 342.547 466.706C342.391 466.427 342.142 466.178 341.799 465.959C341.456 465.74 341.228 465.594 340.832 465.613C339.002 465.437 336.285 466.318 332.813 470.414C332.407 470.875 331.918 470.924 331.481 470.736C330.473 470.183 329.163 469.618 327.52 469.381C322.965 468.549 306.629 476.158 296.255 488.651C296.015 488.949 295.911 489.423 296.087 489.806C296.263 490.189 296.679 490.274 297.053 490.152C297.063 490.149 297.108 490.132 297.186 490.102C298.693 489.532 312.541 484.291 323.863 483.545C324.841 483.448 325.443 484.463 325.045 485.471C323.477 489.609 322.377 493.595 321.339 497.891C321.234 498.365 321.015 498.767 320.702 499.198L312.925 508.21C312.591 508.538 312.601 509.085 312.777 509.467C313.047 509.82 313.463 509.905 313.817 509.68L321.476 502.576C321.549 502.443 321.757 502.485 321.871 502.558C321.986 502.631 322.006 502.734 322.047 502.941L319.988 513.617C319.977 514.06 320.268 514.516 320.663 514.498C321.079 514.583 321.506 514.224 321.611 513.751L325.159 502.041C325.265 501.567 325.577 501.136 325.911 500.808C328.892 497.751 331.498 494.816 334.188 491.304C334.814 490.441 335.927 490.52 336.321 491.492C341.167 502.76 343.71 518.768 343.901 519.972L343.913 520.044C343.995 520.457 344.265 520.809 344.66 520.791C344.848 520.731 345.275 520.372 345.4 520.001Z" fill="#DD5B5B"/>
</g>
<path d="M125.666 508.076C124.847 518.342 92.6117 502.216 71.2221 498.424C56.9458 495.893 41.2936 495.915 30.6229 489.975C33.6103 473.702 38.7151 458.364 45.5343 444.208C51.4667 444.461 60.9844 447.932 73.6031 462.418C96.0897 488.24 126.486 497.809 125.666 508.076Z" fill="url(#paint1_linear_668_450)" fill-opacity="0.1"/>
<path d="M235.65 549.408C211.708 543.086 185.727 531.185 179.98 535.385C174.238 539.56 216.002 560.251 255.223 574.739C298.509 590.748 326.178 598.768 318.778 583.929C311.378 569.09 298.699 550.173 272.942 553.942C247.235 557.719 249.029 552.951 235.65 549.408Z" fill="url(#paint2_linear_668_450)" fill-opacity="0.1"/>
<path d="M221.185 619.726C219.249 630.647 128.154 584.488 93.7398 591.941C68.0245 597.501 59.1034 603.109 44.8072 599.244C31.9336 572.303 25.7266 541.619 28.0469 509.863C35.8428 514.653 49.1333 523.613 69.8844 539.834C107.787 569.427 223.871 604.571 221.185 619.726Z" fill="url(#paint3_linear_668_450)" fill-opacity="0.1"/>
<path d="M292.026 661.762C277.118 672.78 260.496 681.31 242.858 686.891C239.244 682.096 235.796 676.798 229.751 673.277C214.287 664.277 172.526 645.451 182.331 640.931C192.162 636.416 219.623 645.465 253.034 649.311C273.275 651.621 285.523 657.494 292.026 661.762Z" fill="url(#paint4_linear_668_450)" fill-opacity="0.1"/>
<path d="M283.234 631.765C273.869 616.87 240.305 613.743 243.008 626.711C244.502 633.766 295.74 651.663 283.234 631.765Z" fill="url(#paint5_linear_668_450)" fill-opacity="0.1"/>
<path d="M139.045 624.923C125.185 619.031 114.21 623.636 111.373 628.353C108.54 633.043 149.095 647.529 150.958 642.666C152.82 637.804 147.443 628.489 139.045 624.923Z" fill="url(#paint6_linear_668_450)" fill-opacity="0.1"/>
<path d="M148.607 537.12C139.426 532.909 121.041 534.31 119.965 540.377C118.89 546.444 140.97 557.628 151.23 556.331C161.47 555.005 167.14 545.598 148.607 537.12Z" fill="url(#paint7_linear_668_450)" fill-opacity="0.1"/>
<path d="M161.727 559.204C158.928 558.202 154.376 561.016 155.801 564.411C157.206 567.776 173.03 563.311 161.727 559.204Z" fill="url(#paint8_linear_668_450)" fill-opacity="0.1"/>
<path d="M254.908 604.881C249.008 601.838 244.034 603.992 245.869 610.575C247.733 617.136 273.286 614.37 254.908 604.881Z" fill="url(#paint9_linear_668_450)" fill-opacity="0.1"/>
<path d="M295.048 644.269C292.247 640.098 288.668 646.254 290.276 648.616C291.859 650.973 301.405 653.704 295.048 644.269Z" fill="url(#paint10_linear_668_450)" fill-opacity="0.1"/>
<path d="M194.868 694.521C185.106 694.601 175.196 693.776 165.272 692.017C131.223 685.981 101.456 669.68 78.4161 646.689C98.9249 644.307 130.461 654.823 160.015 676.519C173.765 686.652 185.591 691.864 194.868 694.521Z" fill="url(#paint11_linear_668_450)" fill-opacity="0.1"/>
<path d="M204.99 677.222C200.04 676.345 199.604 679.383 199.064 682.429C198.529 685.45 203.2 687.317 206.849 683.809C210.452 680.268 208.869 677.91 204.99 677.222Z" fill="url(#paint12_linear_668_450)" fill-opacity="0.1"/>
<path d="M191.819 678.002C189.963 677.327 188.017 682.521 190.743 684.069C193.475 685.592 197.46 680.041 191.819 678.002Z" fill="url(#paint13_linear_668_450)" fill-opacity="0.1"/>
<path d="M90.8306 602.849C83.8432 603.048 73.2154 605.984 80.8993 613.577C88.5785 621.196 110.969 602.265 90.8306 602.849Z" fill="url(#paint14_linear_668_450)" fill-opacity="0.1"/>
<path d="M73.5936 513.41C70.732 509.148 66.6732 518.441 68.4596 519.796C70.1962 521.142 76.7596 518.125 73.5936 513.41Z" fill="url(#paint15_linear_668_450)" fill-opacity="0.1"/>
<path d="M111.97 460.885C104.156 454.893 92.983 449.184 90.3245 452.894C87.6706 456.577 119.772 490.388 129.602 485.873C139.433 481.358 119.041 466.292 111.97 460.885Z" fill="url(#paint16_linear_668_450)" fill-opacity="0.1"/>
<path d="M247.189 529.618C241.613 525.328 239.376 539.683 247.417 545.263C255.458 550.842 250.737 532.324 247.189 529.618Z" fill="url(#paint17_linear_668_450)" fill-opacity="0.1"/>
<path d="M339.431 563.65C327.792 561.001 328.246 581.452 335.673 584.846C343.101 588.24 359.672 568.277 339.431 563.65Z" fill="url(#paint18_linear_668_450)" fill-opacity="0.1"/>
<defs>
<filter id="filter0_d_668_450" x="20.1272" y="356" width="348" height="348" filterUnits="userSpaceOnUse" color-interpolation-filters="sRGB">
<feFlood flood-opacity="0" result="BackgroundImageFix"/>
<feColorMatrix in="SourceAlpha" type="matrix" values="0 0 0 0 0 0 0 0 0 0 0 0 0 0 0 0 0 0 127 0" result="hardAlpha"/>
<feOffset dy="4"/>
<feGaussianBlur stdDeviation="2"/>
<feComposite in2="hardAlpha" operator="out"/>
<feColorMatrix type="matrix" values="0 0 0 0 0 0 0 0 0 0 0 0 0 0 0 0 0 0 0.25 0"/>
<feBlend mode="normal" in2="BackgroundImageFix" result="effect1_dropShadow_668_450"/>
<feBlend mode="normal" in="SourceGraphic" in2="effect1_dropShadow_668_450" result="shape"/>
</filter>
<filter id="filter1_d_668_450" x="232.99" y="398.507" width="119.684" height="138.285" filterUnits="userSpaceOnUse" color-interpolation-filters="sRGB">
<feFlood flood-opacity="0" result="BackgroundImageFix"/>
<feColorMatrix in="SourceAlpha" type="matrix" values="0 0 0 0 0 0 0 0 0 0 0 0 0 0 0 0 0 0 127 0" result="hardAlpha"/>
<feOffset dx="-12"/>
<feGaussianBlur stdDeviation="8"/>
<feComposite in2="hardAlpha" operator="out"/>
<feColorMatrix type="matrix" values="0 0 0 0 0 0 0 0 0 0 0 0 0 0 0 0 0 0 0.25 0"/>
<feBlend mode="normal" in2="BackgroundImageFix" result="effect1_dropShadow_668_450"/>
<feBlend mode="normal" in="SourceGraphic" in2="effect1_dropShadow_668_450" result="shape"/>
</filter>
<linearGradient id="paint0_linear_668_450" x1="263.627" y1="428.5" x2="173.627" y2="608" gradientUnits="userSpaceOnUse">
<stop stop-color="#8F0505"/>
<stop offset="1" stop-color="#451804"/>
</linearGradient>
<linearGradient id="paint1_linear_668_450" x1="53.2723" y1="577.603" x2="157.312" y2="312.965" gradientUnits="userSpaceOnUse">
<stop stop-color="#BD712B"/>
<stop offset="1" stop-color="#E2992B" stop-opacity="0"/>
</linearGradient>
<linearGradient id="paint2_linear_668_450" x1="221.732" y1="625.967" x2="269.605" y2="446.317" gradientUnits="userSpaceOnUse">
<stop stop-color="#BD712B"/>
<stop offset="1" stop-color="#E2992B" stop-opacity="0"/>
</linearGradient>
<linearGradient id="paint3_linear_668_450" x1="72.0216" y1="727.806" x2="216.677" y2="295.161" gradientUnits="userSpaceOnUse">
<stop stop-color="#BD712B"/>
<stop offset="1" stop-color="#E2992B" stop-opacity="0"/>
</linearGradient>
<linearGradient id="paint4_linear_668_450" x1="208.566" y1="737.403" x2="270.65" y2="537.28" gradientUnits="userSpaceOnUse">
<stop stop-color="#BD712B"/>
<stop offset="1" stop-color="#E2992B" stop-opacity="0"/>
</linearGradient>
<linearGradient id="paint5_linear_668_450" x1="253.208" y1="664.054" x2="285.752" y2="569.066" gradientUnits="userSpaceOnUse">
<stop stop-color="#BD712B"/>
<stop offset="1" stop-color="#E2992B" stop-opacity="0"/>
</linearGradient>
<linearGradient id="paint6_linear_668_450" x1="121.169" y1="665.389" x2="152.703" y2="574.029" gradientUnits="userSpaceOnUse">
<stop stop-color="#BD712B"/>
<stop offset="1" stop-color="#E2992B" stop-opacity="0"/>
</linearGradient>
<linearGradient id="paint7_linear_668_450" x1="129.043" y1="582.006" x2="165.189" y2="482.234" gradientUnits="userSpaceOnUse">
<stop stop-color="#BD712B"/>
<stop offset="1" stop-color="#E2992B" stop-opacity="0"/>
</linearGradient>
<linearGradient id="paint8_linear_668_450" x1="157.236" y1="575.524" x2="172.24" y2="542.235" gradientUnits="userSpaceOnUse">
<stop stop-color="#BD712B"/>
<stop offset="1" stop-color="#E2992B" stop-opacity="0"/>
</linearGradient>
<linearGradient id="paint9_linear_668_450" x1="248.311" y1="628.061" x2="268.938" y2="578.759" gradientUnits="userSpaceOnUse">
<stop stop-color="#BD712B"/>
<stop offset="1" stop-color="#E2992B" stop-opacity="0"/>
</linearGradient>
<linearGradient id="paint10_linear_668_450" x1="290.361" y1="661.125" x2="309.66" y2="627.555" gradientUnits="userSpaceOnUse">
<stop stop-color="#BD712B"/>
<stop offset="1" stop-color="#E2992B" stop-opacity="0"/>
</linearGradient>
<linearGradient id="paint11_linear_668_450" x1="112.385" y1="728.894" x2="158.158" y2="563.261" gradientUnits="userSpaceOnUse">
<stop stop-color="#BD712B"/>
<stop offset="1" stop-color="#E2992B" stop-opacity="0"/>
</linearGradient>
<linearGradient id="paint12_linear_668_450" x1="199.948" y1="698.17" x2="222.019" y2="658.621" gradientUnits="userSpaceOnUse">
<stop stop-color="#BD712B"/>
<stop offset="1" stop-color="#E2992B" stop-opacity="0"/>
</linearGradient>
<linearGradient id="paint13_linear_668_450" x1="189.344" y1="693.058" x2="206.596" y2="667.045" gradientUnits="userSpaceOnUse">
<stop stop-color="#BD712B"/>
<stop offset="1" stop-color="#E2992B" stop-opacity="0"/>
</linearGradient>
<linearGradient id="paint14_linear_668_450" x1="81.4918" y1="634.882" x2="111.26" y2="568.461" gradientUnits="userSpaceOnUse">
<stop stop-color="#BD712B"/>
<stop offset="1" stop-color="#E2992B" stop-opacity="0"/>
</linearGradient>
<linearGradient id="paint15_linear_668_450" x1="67.9724" y1="531.712" x2="91.4946" y2="499.881" gradientUnits="userSpaceOnUse">
<stop stop-color="#BD712B"/>
<stop offset="1" stop-color="#E2992B" stop-opacity="0"/>
</linearGradient>
<linearGradient id="paint16_linear_668_450" x1="96.3772" y1="521.912" x2="153.674" y2="383.854" gradientUnits="userSpaceOnUse">
<stop stop-color="#BD712B"/>
<stop offset="1" stop-color="#E2992B" stop-opacity="0"/>
</linearGradient>
<linearGradient id="paint17_linear_668_450" x1="240.419" y1="568.508" x2="288.853" y2="506.57" gradientUnits="userSpaceOnUse">
<stop stop-color="#BD712B"/>
<stop offset="1" stop-color="#E2992B" stop-opacity="0"/>
</linearGradient>
<linearGradient id="paint18_linear_668_450" x1="330.028" y1="615.395" x2="388.694" y2="524.652" gradientUnits="userSpaceOnUse">
<stop stop-color="#BD712B"/>
<stop offset="1" stop-color="#E2992B" stop-opacity="0"/>
</linearGradient>
</defs>
</svg>
